<?xml version="1.0" encoding="utf-8"?>
<!-- Generator: Adobe Illustrator 24.2.0, SVG Export Plug-In . SVG Version: 6.00 Build 0)  -->
<svg version="1.1" id="Laag_1" xmlns="http://www.w3.org/2000/svg" xmlns:xlink="http://www.w3.org/1999/xlink" x="0px" y="0px"
	 viewBox="0 0 829 1750" style="enable-background:new 0 0 829 1750;" xml:space="preserve">
<style type="text/css">
	.st0{fill:#ECB70C;}
	.st1{fill:#E84E1B;}
	.st2{fill:#FFFFFF;}
	.st3{fill:#1D70B7;}
	.st4{fill:#1D1D1B;}
	.st5{opacity:0.5;}
	.st6{fill:#FFEC00;}
	.st7{clip-path:url(#SVGID_2_);}
	.st8{clip-path:url(#SVGID_4_);}
	.st9{fill:url(#SVGID_5_);}
	.st10{fill:url(#SVGID_6_);}
	.st11{fill:#6758A1;}
	.st12{fill:url(#SVGID_7_);}
	.st13{fill:url(#SVGID_8_);}
	.st14{fill:url(#SVGID_9_);}
	.st15{fill:url(#SVGID_10_);}
	.st16{fill:url(#SVGID_11_);}
	.st17{fill:url(#SVGID_12_);}
	.st18{clip-path:url(#SVGID_14_);}
	.st19{fill:url(#SVGID_15_);}
	.st20{fill:url(#SVGID_16_);}
	.st21{fill:url(#SVGID_17_);}
	.st22{fill:url(#SVGID_18_);}
	.st23{fill:url(#SVGID_19_);}
	.st24{fill:url(#SVGID_20_);}
	.st25{fill:url(#SVGID_21_);}
	.st26{fill:url(#SVGID_22_);}
</style>
<g>
	<g>
		<path class="st0" d="M804.63,642.22c1.99,162.98-265.9,218.92-378.24,218.92c-115.44,0-378.19-57.51-378.24-218.92
			c-0.07-192.83,214.73-343.79,378.24-343.79C590.25,298.43,802.25,446.67,804.63,642.22z"/>
	</g>
</g>
<g>
	<path class="st1" d="M376.93,1442.95c-6.02-20.31-14.65-43.26-32.75-53.84V920h-24.46v463.16c-24.09,0.06-53.76,9.56-76.81,14.46
		c-31.45,6.69-62.31,16.16-92.11,28.26c-15.49,6.29-30.7,13.29-45.54,20.98c-11.97,6.2-27.36,20.1-40.15,23.03
		c70.32-16.12,142.75-22.97,214.84-20.33c-0.92,46.11-1.84,92.22-2.77,138.33c17.46-39.54,34.92-79.07,52.38-118.61
		c27.46,48.13,50.81,98.6,69.74,150.68C411.28,1561.06,394.02,1500.58,376.93,1442.95z"/>
</g>
<g>
	<path class="st1" d="M464.59,1442.95c6.02-20.31,14.65-43.26,32.75-53.84V920h24.46v463.16c24.09,0.06,53.76,9.56,76.81,14.46
		c31.45,6.69,62.31,16.16,92.11,28.26c15.49,6.29,30.7,13.29,45.54,20.98c11.97,6.2,27.36,20.1,40.15,23.03
		c-70.32-16.12-142.75-22.97-214.84-20.33c0.92,46.11,1.84,92.22,2.77,138.33c-17.46-39.54-34.92-79.07-52.38-118.61
		c-27.46,48.13-50.81,98.6-69.74,150.68C430.24,1561.06,447.49,1500.58,464.59,1442.95z"/>
</g>
<g>
	<circle class="st2" cx="271.87" cy="521.76" r="119.45"/>
	<path class="st1" d="M271.87,647.68c-69.43,0-125.92-56.49-125.92-125.92s56.49-125.92,125.92-125.92s125.92,56.49,125.92,125.92
		S341.3,647.68,271.87,647.68z M271.87,408.79c-62.29,0-112.97,50.68-112.97,112.97s50.68,112.97,112.97,112.97
		s112.97-50.68,112.97-112.97S334.16,408.79,271.87,408.79z"/>
</g>
<g>
	<circle class="st3" cx="271.87" cy="559.68" r="72.99"/>
</g>
<g>
	<path class="st2" d="M158.26,506.61c9.85,4.19,19.7,8.37,29.55,12.56c7.83-7.52,15.66-15.04,23.49-22.57
		C194.27,487,170.62,491.46,158.26,506.61z"/>
</g>
<g>
	<circle class="st4" cx="271.87" cy="559.68" r="33.18"/>
</g>
<g class="st5">
	<path class="st2" d="M225.55,516.94c-9.5,2.33-19.07,4.36-28.7,6.08c0.78,0.33,1.57,0.67,2.35,1c-2.16,2.7-4.33,5.39-6.49,8.09
		c14.21,5.68,9.37,28.88,20.46,39.42c6.12,5.82,17.13,5.71,22.65-0.68c5.52-6.39,3.55-17.89-4.06-21.54
		c10.91-4.63,23.05-2.73,33.25,2.23c-2.1-1.98-4.91-6.43-7.35-11.78C242.61,536.98,231.89,528.24,225.55,516.94z"/>
</g>
<g>
	<circle class="st2" cx="587.55" cy="516.94" r="119.45"/>
	<path class="st0" d="M587.55,638.54c-67.05,0-121.6-54.55-121.6-121.6s54.55-121.6,121.6-121.6c67.05,0,121.6,54.55,121.6,121.6
		S654.6,638.54,587.55,638.54z M587.55,399.65c-64.67,0-117.29,52.62-117.29,117.29s52.62,117.29,117.29,117.29
		s117.29-52.62,117.29-117.29S652.22,399.65,587.55,399.65z"/>
</g>
<g>
	<circle class="st3" cx="587.55" cy="554.85" r="72.99"/>
</g>
<g>
	<path class="st2" d="M473.94,501.78c9.85,4.19,19.7,8.37,29.55,12.56c7.83-7.52,15.66-15.04,23.49-22.57
		C509.94,482.17,486.3,486.64,473.94,501.78z"/>
</g>
<g>
	<circle class="st4" cx="587.55" cy="554.85" r="33.18"/>
</g>
<g class="st5">
	<path class="st2" d="M541.23,512.11c-9.5,2.33-19.07,4.36-28.7,6.08c0.78,0.33,1.57,0.67,2.35,1c-2.16,2.7-4.33,5.39-6.49,8.09
		c14.21,5.68,9.37,28.88,20.46,39.42c6.12,5.82,17.13,5.71,22.65-0.68c5.52-6.39,3.55-17.89-4.06-21.54
		c10.91-4.63,23.05-2.73,33.25,2.23c-2.1-1.98-4.91-6.43-7.35-11.78C558.29,532.15,547.57,523.42,541.23,512.11z"/>
</g>
<g>
	<g>
		<path class="st1" d="M425.28,770.92c-18.77-40.51-36.94-82.12-66.32-116.35c47.42-39.88,86.02-39.21,132.65,0
			C462.22,688.8,444.05,730.41,425.28,770.92z"/>
		<path class="st2" d="M425.27,786.31l-9.88-21.33c-17.04-36.91-34.65-75.08-61.36-106.19l-4.26-4.96l5-4.21
			c49.41-41.56,91.57-41.56,140.98,0l5,4.21l-4.26,4.96c-26.7,31.1-44.31,69.26-61.34,106.16L425.27,786.31z M368.11,655.45
			c24.53,30.23,41.23,65.55,57.16,100.04c15.93-34.49,32.63-69.81,57.16-100.04C441.73,623.27,408.83,623.27,368.11,655.45z"/>
	</g>
</g>
<g>
	<path class="st1" d="M594.32,168.68c3.74-19.13,6.09-39.18,0.68-57.91c-5.41-18.73-20.23-35.87-39.5-38.75
		c-26.53-3.97-49.21,18.77-63.82,41.27C467.82,150,451.8,191.77,445,235.02c5.71-22.21-0.92-46.47-14.43-65
		c-13.51-18.53-33.27-31.78-54.34-40.83c-14.67-6.3-31.08-10.78-46.53-6.74c-28.42,7.42-42.43,40.54-42.59,69.91
		c-0.16,29.37,9.22,58.2,8.82,87.57c-9.81-32.8-34.08-60.99-65.05-75.58c-30.97-14.59-68.16-15.34-99.7-2.02
		c-2.16,42.54,17.58,85.6,51.21,111.74c-29.6-4.94-60.09-9.86-89.37-3.29c-29.28,6.58-57.42,27.53-63.11,57s20.15,63.39,49.73,58.32
		c24.42-4.19,38.42-29.17,56.49-46.12c20.89-19.58,48.97-29.17,76.13-38.22c30.93-10.3,64.15-20.7,95.53-11.83
		c18.78,5.31,35.1,17.13,53.55,23.46C483.78,395.42,574.02,272.36,594.32,168.68z"/>
	<path class="st2" d="M73.77,433.07c-12.1,0-24.09-5.32-33.72-15.15c-13.41-13.69-19.89-33.86-16.5-51.37
		c6.53-33.8,38.88-55.53,68.05-62.08c23.49-5.28,47.79-3.43,70.63-0.16c-25.34-27.37-39.41-64.88-37.51-102.31l0.21-4.05l3.74-1.58
		c33.16-14.02,72.41-13.22,104.98,2.12c21.35,10.05,39.7,26.3,52.72,46.01c-0.4-2.62-0.81-5.26-1.22-7.92
		c-2.25-14.38-4.57-29.24-4.49-44.26c0.16-30.75,15.07-67.69,47.42-76.14c14.35-3.74,30.95-1.44,50.72,7.05
		c24.83,10.67,44.01,25.12,57.02,42.97c5.55,7.61,9.86,15.87,12.83,24.37c8.73-28.53,21.44-55.93,37.61-80.81
		c12.09-18.6,37.29-49.07,70.21-44.14c23.28,3.48,39.25,24.29,44.76,43.36c5.97,20.69,3.08,42.42-0.55,60.95l0,0
		c-11.27,57.58-48.52,138.72-116.4,177.9c-38.81,22.4-82.05,26.45-125.03,11.69c-8.88-3.05-17.23-7.28-25.3-11.36
		c-9.43-4.78-18.35-9.29-27.91-12c-30.57-8.64-64.47,2.67-91.72,11.75c-25.09,8.36-53.52,17.83-73.75,36.8
		c-4.83,4.53-9.33,9.63-14.09,15.03c-12.73,14.42-25.89,29.34-45.73,32.74C78.41,432.88,76.09,433.07,73.77,433.07z M123.72,314.11
		c-9.9,0-19.73,0.84-29.28,2.99c-25.05,5.63-52.76,23.86-58.18,51.91c-2.6,13.46,2.52,29.1,13.04,39.85
		c4.97,5.08,15.39,13.26,29.24,10.86c15.34-2.63,26.45-15.22,38.21-28.55c4.75-5.39,9.67-10.96,14.95-15.91
		c22.3-20.91,52.16-30.86,78.51-39.64c26.74-8.91,59.52-19.83,91.51-13.76l-11.99-40.08c-9.28-31.02-32.31-57.78-61.61-71.58
		c-28.06-13.21-61.62-14.43-90.61-3.43c-0.65,39.24,17.83,78.08,48.86,102.19l20.21,15.71l-25.25-4.22
		C163.13,317.42,143.31,314.11,123.72,314.11z M301.82,321.88c2.58,0.49,5.16,1.1,7.72,1.82c10.78,3.04,20.67,8.06,30.24,12.9
		c8.03,4.07,15.61,7.91,23.65,10.67c39.9,13.69,78.38,10.11,114.36-10.66c60.01-34.63,98.57-109.92,110.17-169.17
		c3.32-17.01,6.02-36.83,0.81-54.87c-4.36-15.1-16.64-31.51-34.24-34.15c-25.79-3.85-47.05,22.4-57.44,38.39
		c-21.43,32.98-36.53,70.55-43.96,109.23c-0.36,3.59-0.98,7.13-1.87,10.58l-12.66-2.62c0.52-3.29,1.09-6.58,1.71-9.87
		c1.53-16.76-3.79-34.97-14.98-50.32c-11.62-15.94-29-28.96-51.67-38.7c-17.03-7.31-30.88-9.41-42.34-6.42
		c-25.74,6.72-37.62,37.73-37.75,63.68c-0.07,13.98,2.17,28.32,4.34,42.19c2.31,14.76,4.69,30.01,4.48,45.44L301.82,321.88z"/>
</g>
<g>
	<g>
		<path class="st6" d="M655.6,1001.02c-1.4,136.68-104.26,233.88-238.93,236.32c-138.96,2.52-234.89-101.06-238.93-236.32
			c-4.43-148.66,138.96-111.29,238.93-111.29S657.09,855.24,655.6,1001.02z"/>
	</g>
</g>
<g>
	<g>
		<path class="st6" d="M725.78,1091.44c18.02,45.26,49.57,173.72,45.06,175.42c-10.13,3.82-68.11-108.87-87.82-158.4
			c-19.72-49.53-49.83-173.42-45.06-175.42C647.26,929.14,707.76,1046.18,725.78,1091.44z"/>
	</g>
</g>
<g>
	<g>
		<path class="st6" d="M109.14,1078.49c-18.02,45.26-49.57,173.72-45.06,175.42c10.13,3.82,68.11-108.87,87.82-158.4
			c19.72-49.53,49.83-173.42,45.06-175.42C187.66,916.19,127.16,1033.23,109.14,1078.49z"/>
	</g>
</g>
<g>
	<g>
		<path class="st0" d="M163.63,1040.73c-10.83,0-22.76-5.83-30.55-14.68c-10.01,20.37-18.75,39.39-23.94,52.44
			c-18.02,45.26-49.57,173.72-45.06,175.42c10.13,3.82,68.11-108.87,87.82-158.4c5.57-13.98,11.96-33.9,18.17-55.33
			C168.01,1040.51,165.89,1040.73,163.63,1040.73z"/>
	</g>
</g>
<g>
	<g>
		<path class="st0" d="M671.28,1056.7c10.83,0,22.76-5.83,30.55-14.68c10.01,20.37,18.75,39.39,23.94,52.44
			c18.02,45.26,49.57,173.72,45.06,175.42c-10.13,3.82-68.11-108.87-87.82-158.4c-5.57-13.98-11.96-33.9-18.17-55.33
			C666.91,1056.48,669.03,1056.7,671.28,1056.7z"/>
	</g>
</g>
<g>
	<g>
		<defs>
			<path id="SVGID_1_" d="M199.24,1099.95c36.14,83.52,115.09,139.25,217.43,137.39c99.12-1.8,180.95-54.97,217.83-137.39H199.24z"
				/>
		</defs>
		<clipPath id="SVGID_2_">
			<use xlink:href="#SVGID_1_"  style="overflow:visible;"/>
		</clipPath>
		<g class="st7">
			<g>
				<defs>
					<rect id="SVGID_3_" x="329.12" y="807.7" width="599.77" height="593"/>
				</defs>
				<clipPath id="SVGID_4_">
					<use xlink:href="#SVGID_3_"  style="overflow:visible;"/>
				</clipPath>
				<g class="st8">
					
						<linearGradient id="SVGID_5_" gradientUnits="userSpaceOnUse" x1="-39010.1445" y1="37882.7305" x2="-38823.6523" y2="37754" gradientTransform="matrix(1 0 0 1 39799.5195 -36123.4219)">
						<stop  offset="0.0289" style="stop-color:#A197C9"/>
						<stop  offset="0.66" style="stop-color:#7C6EAF"/>
					</linearGradient>
					<path class="st9" d="M928.54,1395.34c-28.53,33.96-46.79,132.24,8.53,223.69c54.47,90.03,165.39,121.63,152.93,223.26
						c-8.77-24.02-36.42-36.53-65.27-36.53c-21.47,0-46.45,11.14-46.45,38.14c0,17.06,13.92,27.94,27.19,27.94
						c19.43,0,29.29-21.27,17.86-36.7c10.9,3.99,21.81,14.55,21.81,35.84c0,23.78-21.84,48.73-58.63,48.73
						c-37.21,0-72.52-31.82-72.52-73.35c0-66.11,72.03-89.75,118.82-67.15c-54.51-48.99-166.17-7.71-199.14-109.63
						c18.84,21.86,43.06,17.49,43.06,17.49c-16.82-8.41-34.4-25.68-45.1-53.14c-16.88-43.32-6.75-67.41-33.89-93.59
						c33.33,12.67,61.46,37.43,78.67,69.2c-18.96-64.45-43-111.85-104.26-149.76c39.76,7.96,60.71,16.68,93.83,45.5
						C873.83,1452.33,892.57,1427.16,928.54,1395.34z"/>
					
						<linearGradient id="SVGID_6_" gradientUnits="userSpaceOnUse" x1="-38875.1016" y1="37594.6719" x2="-38536.7266" y2="37594.6719" gradientTransform="matrix(1 0 0 1 39799.5195 -36123.4219)">
						<stop  offset="0.0289" style="stop-color:#A197C9"/>
						<stop  offset="0.66" style="stop-color:#7C6EAF"/>
					</linearGradient>
					<path class="st10" d="M1120.96,1832.3c-11.49-97.57-74.58-119.39-134.6-183.89c-77.65-83.44-73.3-199.12-36.02-260.66
						c-9.13,61.68,2.19,118.31,39.81,166.82c-21.98-73.87-18.2-151.53,18.01-211.37c-5.14,39.91-4.33,61.51,8.53,97.63
						c3.79-77.7,36.83-132.4,98.58-179.15c-24.67,41.59-37.08,94.98-30.34,137.44c27.3-111.61,103.85-159.45,158.53-175.36
						c-18.74,23.2-30.2,49.59-35.3,78.68c40.46-84.39,119.79-96.25,163.04-122.27c31.13-18.74,18.19-53.26-0.69-53.26
						c-10.25,0-16.18,5.93-22.11,17.26c4.31-22.65,18.88-33.98,34.52-33.98c22.92,0,40.25,22.65,40.25,50.54
						c0,74.48-98.94,127.15-211.2,191c-96.68,54.97-140.23,96.08-154.5,172.51c-14.47,77.52,25.59,151.66,25.59,151.66
						s-36.92-127.71,19.96-206.52c51.78-71.73,130.9-103.21,203.86-146.16c80.68-47.48,154.79-97.62,132.57-179.08
						c40.79,40.79,54.86,104.76,22.75,144.08c-41.28,50.53-123.06,61.44-155.45,93.84c56.76-28.63,108.83-17.75,149.76-34.12
						c40.2-16.09,39.81-61.61,39.81-61.61c16.58,57.39-0.03,123.59-66.35,147.87c-69.63,25.49-149.86-7.51-221.8,33.17
						c77.17-26.77,166.75-13.72,216.33,68.25c-19.68-19.68-57.4-26.54-86.47-26.54c67.33,37.63,59.5,136.79-2.07,156.02
						c0,0,19.83-14.01,19.83-49.68c0-47.83-42.16-87.79-120.9-87.79c-53.39,0-98.97,22.65-118.66,60.12
						c21.3-25.06,57.31-42.65,97.63-42.65c57.42,0,80.08,42.22,80.57,75.29c0.51,34.86-21.99,58.68-40.76,68.78
						c24.62-27.25,5.21-64.46-29.38-64.46c-50.28,0-71.12,60.94-61.61,110.9c11.53-42.42,34.18-64.53,75.83-72.04
						c-30.32,24.23-41.65,49.04-36.96,90.05c26.6-58.81,79.62-29.38,104.27-88.15c5.92,32.58,0.52,81.88-46.58,104.76
						C1206.51,1795.86,1162.67,1783.96,1120.96,1832.3z"/>
					<path class="st11" d="M1201.53,1753.63c-4.69-41.01,6.64-65.82,36.96-90.05c-41.65,7.51-64.3,29.62-75.83,72.04
						c-9.51-49.97,11.33-110.9,61.61-110.9c34.59,0,54.01,37.21,29.38,64.46c35.05-26.44,29.1-86.68-13.09-103.61
						c-33.14-13.3-94.34-0.32-113.74,62.55c-19.73,63.93,28.38,108.5-5.87,184.18c41.71-48.34,85.54-36.44,138.26-62.06
						c47.1-22.88,52.5-72.18,46.58-104.76C1281.15,1724.24,1228.13,1694.82,1201.53,1753.63z M1424.49,1535.62
						c-19.68-19.68-57.4-26.54-86.47-26.54c67.33,37.63,59.5,136.79-2.07,156.02c0,0,19.83-14.01,19.83-49.68
						c0-47.83-42.16-87.79-120.9-87.79c-53.39,0-98.97,22.65-118.66,60.12C1131.99,1465.59,1341.86,1438.73,1424.49,1535.62z
						 M1429.96,1434.2c-69.63,25.49-149.86-7.51-221.8,33.17c0,0,36.45-54.08,159.6-64.54c97-8.23,138.51-39.88,128.55-116.5
						C1512.89,1343.72,1496.28,1409.92,1429.96,1434.2z M1441.83,1269.69c30.9-36.35,25.26-86.68-2.38-125.54
						c40.79,40.79,54.86,104.76,22.75,144.08c-41.28,50.53-123.06,61.44-155.45,93.84
						C1343.73,1322.84,1399.2,1319.84,1441.83,1269.69z M1211.96,1351.74c-96.68,54.97-140.23,96.08-154.5,172.51
						c-14.47,77.52,25.59,151.66,25.59,151.66s-46.55-59.05-46.55-133.57c0-91.79,65.44-148.14,136.32-192.67
						c70.9-44.53,144.06-81.41,192.67-122.69c55.42-47.05,52.71-107.24,17.43-116.78c22.92,0,40.25,22.65,40.25,50.54
						C1423.16,1235.22,1324.22,1287.89,1211.96,1351.74z M1090,1842.29c-3.18-34.75-24.56-67.69-61.96-96.23
						c-61.55-46.98-110.73-91.04-133.27-152.97c-28.53-78.4-2.04-161.93,33.77-197.75c-28.53,33.96-46.79,132.24,8.53,223.69
						C991.54,1709.06,1102.47,1740.67,1090,1842.29z M978.28,1843.91c0,17.06,13.92,27.94,27.19,27.94
						c19.43,0,29.29-21.27,17.86-36.7c24.21,19.58,11.37,60.08-26.82,60.08c-25.69,0-49.08-19.76-49.08-49.72
						c0-55.31,82.04-67.4,111.74-33.15c-10.39-4.35-22.3-6.59-34.44-6.59C1003.26,1805.76,978.28,1816.9,978.28,1843.91z"/>
				</g>
				<g class="st8">
					
						<linearGradient id="SVGID_7_" gradientUnits="userSpaceOnUse" x1="-39609.918" y1="37882.7305" x2="-39423.4258" y2="37754" gradientTransform="matrix(1 0 0 1 39799.5195 -36123.4219)">
						<stop  offset="0.0289" style="stop-color:#A197C9"/>
						<stop  offset="0.66" style="stop-color:#7C6EAF"/>
					</linearGradient>
					<path class="st12" d="M328.77,1395.34c-28.53,33.96-46.79,132.24,8.53,223.69c54.47,90.03,165.39,121.63,152.93,223.26
						c-8.77-24.02-36.42-36.53-65.27-36.53c-21.47,0-46.45,11.14-46.45,38.14c0,17.06,13.92,27.94,27.19,27.94
						c19.43,0,29.29-21.27,17.86-36.7c10.9,3.99,21.81,14.55,21.81,35.84c0,23.78-21.84,48.73-58.63,48.73
						c-37.21,0-72.52-31.82-72.52-73.35c0-66.11,72.03-89.75,118.82-67.15c-54.51-48.99-166.17-7.71-199.14-109.63
						c18.84,21.86,43.06,17.49,43.06,17.49c-16.82-8.41-34.4-25.68-45.1-53.14c-16.87-43.32-6.75-67.41-33.89-93.59
						c33.33,12.67,61.46,37.43,78.67,69.2c-18.96-64.45-43-111.85-104.26-149.76c39.76,7.96,60.71,16.68,93.83,45.5
						C274.05,1452.33,292.79,1427.16,328.77,1395.34z"/>
					
						<linearGradient id="SVGID_8_" gradientUnits="userSpaceOnUse" x1="-39474.875" y1="37594.6719" x2="-39136.5" y2="37594.6719" gradientTransform="matrix(1 0 0 1 39799.5195 -36123.4219)">
						<stop  offset="0.0289" style="stop-color:#A197C9"/>
						<stop  offset="0.66" style="stop-color:#7C6EAF"/>
					</linearGradient>
					<path class="st13" d="M521.19,1832.3c-11.49-97.57-74.58-119.39-134.6-183.89c-77.65-83.44-73.3-199.12-36.02-260.66
						c-9.13,61.68,2.19,118.31,39.81,166.82c-21.98-73.87-18.2-151.53,18.01-211.37c-5.14,39.91-4.33,61.51,8.53,97.63
						c3.79-77.7,36.83-132.4,98.58-179.15c-24.67,41.59-37.08,94.98-30.34,137.44c27.3-111.61,103.85-159.45,158.53-175.36
						c-18.74,23.2-30.2,49.59-35.3,78.68c40.46-84.39,119.79-96.25,163.04-122.27c31.13-18.74,18.19-53.26-0.69-53.26
						c-10.25,0-16.18,5.93-22.11,17.26c4.31-22.65,18.88-33.98,34.52-33.98c22.92,0,40.25,22.65,40.25,50.54
						c0,74.48-98.94,127.15-211.2,191c-96.68,54.97-140.23,96.08-154.5,172.51c-14.47,77.52,25.59,151.66,25.59,151.66
						s-36.92-127.71,19.96-206.52c51.78-71.73,130.9-103.21,203.86-146.16c80.68-47.48,154.79-97.62,132.57-179.08
						c40.79,40.79,54.86,104.76,22.75,144.08c-41.28,50.53-123.06,61.44-155.45,93.84c56.76-28.63,108.83-17.75,149.76-34.12
						c40.21-16.09,39.81-61.61,39.81-61.61c16.58,57.39-0.03,123.59-66.35,147.87c-69.63,25.49-149.86-7.51-221.8,33.17
						c77.17-26.77,166.75-13.72,216.33,68.25c-19.68-19.68-57.4-26.54-86.47-26.54c67.33,37.63,59.5,136.79-2.07,156.02
						c0,0,19.83-14.01,19.83-49.68c0-47.83-42.16-87.79-120.9-87.79c-53.39,0-98.97,22.65-118.66,60.12
						c21.3-25.06,57.31-42.65,97.63-42.65c57.42,0,80.08,42.22,80.57,75.29c0.51,34.86-21.99,58.68-40.76,68.78
						c24.62-27.25,5.21-64.46-29.38-64.46c-50.27,0-71.11,60.94-61.61,110.9c11.53-42.42,34.18-64.53,75.83-72.04
						c-30.32,24.23-41.65,49.04-36.96,90.05c26.6-58.81,79.62-29.38,104.27-88.15c5.92,32.58,0.52,81.88-46.58,104.76
						C606.73,1795.86,562.89,1783.96,521.19,1832.3z"/>
					<path class="st11" d="M601.76,1753.63c-4.69-41.01,6.64-65.82,36.96-90.05c-41.65,7.51-64.3,29.62-75.83,72.04
						c-9.51-49.97,11.33-110.9,61.61-110.9c34.59,0,54.01,37.21,29.38,64.46c35.05-26.44,29.1-86.68-13.09-103.61
						c-33.14-13.3-94.34-0.32-113.74,62.55c-19.73,63.93,28.38,108.5-5.87,184.18c41.7-48.34,85.54-36.44,138.26-62.06
						c47.1-22.88,52.5-72.18,46.58-104.76C681.38,1724.24,628.35,1694.82,601.76,1753.63z M824.72,1535.62
						c-19.68-19.68-57.4-26.54-86.47-26.54c67.33,37.63,59.5,136.79-2.07,156.02c0,0,19.83-14.01,19.83-49.68
						c0-47.83-42.16-87.79-120.9-87.79c-53.39,0-98.97,22.65-118.66,60.12C532.22,1465.59,742.08,1438.73,824.72,1535.62z
						 M830.19,1434.2c-69.63,25.49-149.86-7.51-221.8,33.17c0,0,36.45-54.08,159.6-64.54c97-8.23,138.51-39.88,128.55-116.5
						C913.12,1343.72,896.51,1409.92,830.19,1434.2z M842.05,1269.69c30.9-36.35,25.26-86.68-2.38-125.54
						c40.79,40.79,54.86,104.76,22.75,144.08c-41.28,50.53-123.06,61.44-155.45,93.84C743.96,1322.84,799.42,1319.84,842.05,1269.69
						z M612.18,1351.74c-96.68,54.97-140.23,96.08-154.5,172.51c-14.47,77.52,25.59,151.66,25.59,151.66s-46.55-59.05-46.55-133.57
						c0-91.79,65.44-148.14,136.32-192.67c70.9-44.53,144.06-81.41,192.67-122.69c55.42-47.05,52.71-107.24,17.43-116.78
						c22.92,0,40.25,22.65,40.25,50.54C823.39,1235.22,724.45,1287.89,612.18,1351.74z M490.23,1842.29
						c-3.18-34.75-24.56-67.69-61.96-96.23c-61.55-46.98-110.73-91.04-133.27-152.97c-28.53-78.4-2.04-161.93,33.77-197.75
						c-28.53,33.96-46.79,132.24,8.53,223.69C391.77,1709.06,502.69,1740.67,490.23,1842.29z M378.5,1843.91
						c0,17.06,13.92,27.94,27.19,27.94c19.43,0,29.29-21.27,17.86-36.7c24.21,19.58,11.37,60.08-26.82,60.08
						c-25.69,0-49.08-19.76-49.08-49.72c0-55.31,82.04-67.4,111.74-33.15c-10.39-4.35-22.3-6.59-34.44-6.59
						C403.49,1805.76,378.5,1816.9,378.5,1843.91z"/>
				</g>
				<g class="st8">
					
						<linearGradient id="SVGID_9_" gradientUnits="userSpaceOnUse" x1="-39010.1445" y1="37289.7305" x2="-38823.6523" y2="37161" gradientTransform="matrix(1 0 0 1 39799.5195 -36123.4219)">
						<stop  offset="0.0289" style="stop-color:#A197C9"/>
						<stop  offset="0.66" style="stop-color:#7C6EAF"/>
					</linearGradient>
					<path class="st14" d="M928.54,802.34c-28.53,33.96-46.79,132.24,8.53,223.69c54.47,90.03,165.39,121.63,152.93,223.26
						c-8.77-24.02-36.42-36.53-65.27-36.53c-21.47,0-46.45,11.14-46.45,38.14c0,17.06,13.92,27.94,27.19,27.94
						c19.43,0,29.29-21.27,17.86-36.7c10.9,3.99,21.81,14.55,21.81,35.84c0,23.78-21.84,48.73-58.63,48.73
						c-37.21,0-72.52-31.82-72.52-73.35c0-66.11,72.03-89.75,118.82-67.15c-54.51-48.99-166.17-7.71-199.14-109.63
						c18.84,21.86,43.06,17.49,43.06,17.49c-16.82-8.41-34.4-25.68-45.1-53.14c-16.88-43.32-6.75-67.41-33.89-93.59
						c33.33,12.67,61.46,37.43,78.67,69.2c-18.96-64.45-43-111.85-104.26-149.76c39.76,7.96,60.71,16.68,93.83,45.5
						C873.83,859.33,892.57,834.16,928.54,802.34z"/>
					
						<linearGradient id="SVGID_10_" gradientUnits="userSpaceOnUse" x1="-38875.1016" y1="37001.6758" x2="-38536.7266" y2="37001.6758" gradientTransform="matrix(1 0 0 1 39799.5195 -36123.4219)">
						<stop  offset="0.0289" style="stop-color:#A197C9"/>
						<stop  offset="0.66" style="stop-color:#7C6EAF"/>
					</linearGradient>
					<path class="st15" d="M1120.96,1239.3c-11.49-97.57-74.58-119.39-134.6-183.89c-77.65-83.43-73.3-199.12-36.02-260.66
						c-9.13,61.68,2.19,118.31,39.81,166.82c-21.98-73.87-18.2-151.53,18.01-211.37c-5.14,39.91-4.33,61.51,8.53,97.63
						c3.79-77.7,36.83-132.4,98.58-179.15c-24.67,41.59-37.08,94.98-30.34,137.44c27.3-111.61,103.85-159.45,158.53-175.36
						c-18.74,23.2-30.2,49.59-35.3,78.68c40.46-84.39,119.79-96.25,163.04-122.27c31.13-18.74,18.19-53.26-0.69-53.26
						c-10.25,0-16.18,5.93-22.11,17.26c4.31-22.65,18.88-33.98,34.52-33.98c22.92,0,40.25,22.65,40.25,50.54
						c0,74.48-98.94,127.15-211.2,191c-96.68,54.97-140.23,96.08-154.5,172.51c-14.47,77.52,25.59,151.66,25.59,151.66
						s-36.92-127.71,19.96-206.52c51.78-71.73,130.9-103.21,203.86-146.16c80.68-47.48,154.79-97.62,132.57-179.08
						c40.79,40.79,54.86,104.76,22.75,144.07c-41.28,50.53-123.06,61.45-155.45,93.84c56.76-28.64,108.83-17.75,149.76-34.12
						c40.2-16.09,39.81-61.61,39.81-61.61c16.58,57.39-0.03,123.59-66.35,147.87c-69.63,25.49-149.86-7.51-221.8,33.17
						c77.17-26.77,166.75-13.72,216.33,68.25c-19.68-19.68-57.4-26.54-86.47-26.54c67.33,37.63,59.5,136.79-2.07,156.02
						c0,0,19.83-14.01,19.83-49.68c0-47.83-42.16-87.79-120.9-87.79c-53.39,0-98.97,22.65-118.66,60.12
						c21.3-25.06,57.31-42.65,97.63-42.65c57.42,0,80.08,42.22,80.57,75.29c0.51,34.86-21.99,58.68-40.76,68.78
						c24.62-27.25,5.21-64.46-29.38-64.46c-50.28,0-71.12,60.93-61.61,110.9c11.53-42.42,34.18-64.53,75.83-72.04
						c-30.32,24.23-41.65,49.04-36.96,90.05c26.6-58.81,79.62-29.38,104.27-88.15c5.92,32.58,0.52,81.88-46.58,104.76
						C1206.51,1202.86,1162.67,1190.96,1120.96,1239.3z"/>
					<path class="st11" d="M896.51,1218.13c-1.37-22.99,33.72-44.73,65.71-43.75C923.82,1159.44,865.14,1176.48,896.51,1218.13z"/>
					<path class="st11" d="M1201.53,1160.63c-4.69-41.01,6.64-65.82,36.96-90.05c-41.65,7.51-64.3,29.62-75.83,72.04
						c-9.51-49.97,11.33-110.9,61.61-110.9c34.59,0,54.01,37.2,29.38,64.46c35.05-26.44,29.1-86.68-13.09-103.61
						c-33.14-13.3-94.34-0.32-113.74,62.55c-19.73,63.94,28.38,108.5-5.87,184.18c41.71-48.34,85.54-36.44,138.26-62.06
						c47.1-22.88,52.5-72.19,46.58-104.76C1281.15,1131.25,1228.13,1101.82,1201.53,1160.63z M1424.49,942.62
						c-19.68-19.68-57.4-26.54-86.47-26.54c67.33,37.63,59.5,136.79-2.07,156.02c0,0,19.83-14.01,19.83-49.68
						c0-47.83-42.16-87.79-120.9-87.79c-53.39,0-98.97,22.65-118.66,60.12C1131.99,872.59,1341.86,845.73,1424.49,942.62z
						 M1429.96,841.2c-69.63,25.49-149.86-7.51-221.8,33.17c0,0,36.45-54.08,159.6-64.54c97-8.23,138.51-39.88,128.55-116.5
						C1512.89,750.72,1496.28,816.93,1429.96,841.2z M1441.83,676.69c30.9-36.35,25.26-86.68-2.38-125.54
						c40.79,40.79,54.86,104.76,22.75,144.07c-41.28,50.53-123.06,61.45-155.45,93.84C1343.73,729.84,1399.2,726.84,1441.83,676.69z
						 M1211.96,758.74c-96.68,54.97-140.23,96.08-154.5,172.51c-14.47,77.52,25.59,151.66,25.59,151.66s-46.55-59.05-46.55-133.57
						c0-91.79,65.44-148.14,136.32-192.67c70.9-44.53,144.06-81.41,192.67-122.69c55.42-47.05,52.71-107.24,17.43-116.78
						c22.92,0,40.25,22.65,40.25,50.54C1423.16,642.22,1324.22,694.9,1211.96,758.74z M1090,1249.29
						c-3.18-34.75-24.56-67.69-61.96-96.23c-61.55-46.98-110.73-91.04-133.27-152.97c-28.53-78.4-2.04-161.93,33.77-197.75
						c-28.53,33.96-46.79,132.24,8.53,223.69C991.54,1116.07,1102.47,1147.67,1090,1249.29z M978.28,1250.91
						c0,17.06,13.92,27.94,27.19,27.94c19.43,0,29.29-21.27,17.86-36.7c24.21,19.58,11.37,60.08-26.82,60.08
						c-25.69,0-49.08-19.76-49.08-49.72c0-55.31,82.04-67.4,111.74-33.15c-10.39-4.35-22.3-6.59-34.44-6.59
						C1003.26,1212.76,978.28,1223.9,978.28,1250.91z"/>
					<path class="st11" d="M985.9,1356.51c-22.93,10.1-58.36-17.47-69.47-50.48C915.72,1350.85,955.3,1404.25,985.9,1356.51z"/>
				</g>
				<g class="st8">
					
						<linearGradient id="SVGID_11_" gradientUnits="userSpaceOnUse" x1="-39609.918" y1="37289.7305" x2="-39423.4258" y2="37161" gradientTransform="matrix(1 0 0 1 39799.5195 -36123.4219)">
						<stop  offset="0.0289" style="stop-color:#A197C9"/>
						<stop  offset="0.66" style="stop-color:#7C6EAF"/>
					</linearGradient>
					<path class="st16" d="M328.77,802.34c-28.53,33.96-46.79,132.24,8.53,223.69c54.47,90.03,165.39,121.63,152.93,223.26
						c-8.77-24.02-36.42-36.53-65.27-36.53c-21.47,0-46.45,11.14-46.45,38.14c0,17.06,13.92,27.94,27.19,27.94
						c19.43,0,29.29-21.27,17.86-36.7c10.9,3.99,21.81,14.55,21.81,35.84c0,23.78-21.84,48.73-58.63,48.73
						c-37.21,0-72.52-31.82-72.52-73.35c0-66.11,72.03-89.75,118.82-67.15c-54.51-48.99-166.17-7.71-199.14-109.63
						c18.84,21.86,43.06,17.49,43.06,17.49c-16.82-8.41-34.4-25.68-45.1-53.14c-16.87-43.32-6.75-67.41-33.89-93.59
						c33.33,12.67,61.46,37.43,78.67,69.2c-18.96-64.45-43-111.85-104.26-149.76c39.76,7.96,60.71,16.68,93.83,45.5
						C274.05,859.33,292.79,834.16,328.77,802.34z"/>
					
						<linearGradient id="SVGID_12_" gradientUnits="userSpaceOnUse" x1="-39474.875" y1="37001.6758" x2="-39136.5" y2="37001.6758" gradientTransform="matrix(1 0 0 1 39799.5195 -36123.4219)">
						<stop  offset="0.0289" style="stop-color:#A197C9"/>
						<stop  offset="0.66" style="stop-color:#7C6EAF"/>
					</linearGradient>
					<path class="st17" d="M521.19,1239.3c-11.49-97.57-74.58-119.39-134.6-183.89c-77.65-83.43-73.3-199.12-36.02-260.66
						c-9.13,61.68,2.19,118.31,39.81,166.82c-21.98-73.87-18.2-151.53,18.01-211.37c-5.14,39.91-4.33,61.51,8.53,97.63
						c3.79-77.7,36.83-132.4,98.58-179.15c-24.67,41.59-37.08,94.98-30.34,137.44c27.3-111.61,103.85-159.45,158.53-175.36
						c-18.74,23.2-30.2,49.59-35.3,78.68c40.46-84.39,119.79-96.25,163.04-122.27c31.13-18.74,18.19-53.26-0.69-53.26
						c-10.25,0-16.18,5.93-22.11,17.26c4.31-22.65,18.88-33.98,34.52-33.98c22.92,0,40.25,22.65,40.25,50.54
						c0,74.48-98.94,127.15-211.2,191c-96.68,54.97-140.23,96.08-154.5,172.51c-14.47,77.52,25.59,151.66,25.59,151.66
						s-36.92-127.71,19.96-206.52c51.78-71.73,130.9-103.21,203.86-146.16c80.68-47.48,154.79-97.62,132.57-179.08
						c40.79,40.79,54.86,104.76,22.75,144.07c-41.28,50.53-123.06,61.45-155.45,93.84c56.76-28.64,108.83-17.75,149.76-34.12
						c40.21-16.09,39.81-61.61,39.81-61.61c16.58,57.39-0.03,123.59-66.35,147.87c-69.63,25.49-149.86-7.51-221.8,33.17
						c77.17-26.77,166.75-13.72,216.33,68.25c-19.68-19.68-57.4-26.54-86.47-26.54c67.33,37.63,59.5,136.79-2.07,156.02
						c0,0,19.83-14.01,19.83-49.68c0-47.83-42.16-87.79-120.9-87.79c-53.39,0-98.97,22.65-118.66,60.12
						c21.3-25.06,57.31-42.65,97.63-42.65c57.42,0,80.08,42.22,80.57,75.29c0.51,34.86-21.99,58.68-40.76,68.78
						c24.62-27.25,5.21-64.46-29.38-64.46c-50.27,0-71.11,60.93-61.61,110.9c11.53-42.42,34.18-64.53,75.83-72.04
						c-30.32,24.23-41.65,49.04-36.96,90.05c26.6-58.81,79.62-29.38,104.27-88.15c5.92,32.58,0.52,81.88-46.58,104.76
						C606.73,1202.86,562.89,1190.96,521.19,1239.3z"/>
					<path class="st11" d="M296.73,1218.13c-1.37-22.99,33.72-44.73,65.71-43.75C324.05,1159.44,265.37,1176.48,296.73,1218.13z"/>
					<path class="st11" d="M718.97,1138.32c5.11,24.53-29.21,53.47-63.8,57.48C698.85,1205.8,759.31,1178.18,718.97,1138.32z"/>
					<path class="st11" d="M601.76,1160.63c-4.69-41.01,6.64-65.82,36.96-90.05c-41.65,7.51-64.3,29.62-75.83,72.04
						c-9.51-49.97,11.33-110.9,61.61-110.9c34.59,0,54.01,37.2,29.38,64.46c35.05-26.44,29.1-86.68-13.09-103.61
						c-33.14-13.3-94.34-0.32-113.74,62.55c-19.73,63.94,28.38,108.5-5.87,184.18c41.7-48.34,85.54-36.44,138.26-62.06
						c47.1-22.88,52.5-72.19,46.58-104.76C681.38,1131.25,628.35,1101.82,601.76,1160.63z M824.72,942.62
						c-19.68-19.68-57.4-26.54-86.47-26.54c67.33,37.63,59.5,136.79-2.07,156.02c0,0,19.83-14.01,19.83-49.68
						c0-47.83-42.16-87.79-120.9-87.79c-53.39,0-98.97,22.65-118.66,60.12C532.22,872.59,742.08,845.73,824.72,942.62z
						 M830.19,841.2c-69.63,25.49-149.86-7.51-221.8,33.17c0,0,36.45-54.08,159.6-64.54c97-8.23,138.51-39.88,128.55-116.5
						C913.12,750.72,896.51,816.93,830.19,841.2z M842.05,676.69c30.9-36.35,25.26-86.68-2.38-125.54
						c40.79,40.79,54.86,104.76,22.75,144.07c-41.28,50.53-123.06,61.45-155.45,93.84C743.96,729.84,799.42,726.84,842.05,676.69z
						 M612.18,758.74c-96.68,54.97-140.23,96.08-154.5,172.51c-14.47,77.52,25.59,151.66,25.59,151.66s-46.55-59.05-46.55-133.57
						c0-91.79,65.44-148.14,136.32-192.67c70.9-44.53,144.06-81.41,192.67-122.69c55.42-47.05,52.71-107.24,17.43-116.78
						c22.92,0,40.25,22.65,40.25,50.54C823.39,642.22,724.45,694.9,612.18,758.74z M490.23,1249.29
						c-3.18-34.75-24.56-67.69-61.96-96.23c-61.55-46.98-110.73-91.04-133.27-152.97c-28.53-78.4-2.04-161.93,33.77-197.75
						c-28.53,33.96-46.79,132.24,8.53,223.69C391.77,1116.07,502.69,1147.67,490.23,1249.29z M378.5,1250.91
						c0,17.06,13.92,27.94,27.19,27.94c19.43,0,29.29-21.27,17.86-36.7c24.21,19.58,11.37,60.08-26.82,60.08
						c-25.69,0-49.08-19.76-49.08-49.72c0-55.31,82.04-67.4,111.74-33.15c-10.39-4.35-22.3-6.59-34.44-6.59
						C403.49,1212.76,378.5,1223.9,378.5,1250.91z"/>
					<path class="st11" d="M767.61,1087.84c24.78-3.62,40.16-45.81,32.03-79.67C824.06,1045.75,818.92,1112.02,767.61,1087.84z"/>
					<path class="st11" d="M386.13,1356.51c-22.93,10.1-58.37-17.47-69.47-50.48C315.95,1350.85,355.52,1404.25,386.13,1356.51z"/>
				</g>
			</g>
		</g>
		<g class="st7">
			<g>
				<defs>
					<rect id="SVGID_13_" x="-270.65" y="807.7" width="599.77" height="593"/>
				</defs>
				<clipPath id="SVGID_14_">
					<use xlink:href="#SVGID_13_"  style="overflow:visible;"/>
				</clipPath>
				<g class="st18">
					
						<linearGradient id="SVGID_15_" gradientUnits="userSpaceOnUse" x1="-39470.9063" y1="37882.7305" x2="-39284.4141" y2="37754" gradientTransform="matrix(1 0 0 1 39660.5117 -36123.4219)">
						<stop  offset="0.0289" style="stop-color:#A197C9"/>
						<stop  offset="0.66" style="stop-color:#7C6EAF"/>
					</linearGradient>
					<path class="st19" d="M328.77,1395.34c-28.53,33.96-46.79,132.24,8.53,223.69c54.47,90.03,165.39,121.63,152.93,223.26
						c-8.77-24.02-36.42-36.53-65.27-36.53c-21.47,0-46.45,11.14-46.45,38.14c0,17.06,13.92,27.94,27.19,27.94
						c19.43,0,29.29-21.27,17.86-36.7c10.9,3.99,21.81,14.55,21.81,35.84c0,23.78-21.84,48.73-58.63,48.73
						c-37.21,0-72.52-31.82-72.52-73.35c0-66.11,72.03-89.75,118.82-67.15c-54.51-48.99-166.17-7.71-199.14-109.63
						c18.84,21.86,43.06,17.49,43.06,17.49c-16.82-8.41-34.4-25.68-45.1-53.14c-16.88-43.32-6.75-67.41-33.89-93.59
						c33.33,12.67,61.46,37.43,78.67,69.2c-18.96-64.45-43-111.85-104.26-149.76c39.76,7.96,60.71,16.68,93.83,45.5
						C274.05,1452.33,292.79,1427.16,328.77,1395.34z"/>
					
						<linearGradient id="SVGID_16_" gradientUnits="userSpaceOnUse" x1="-39335.8633" y1="37594.6719" x2="-38997.4922" y2="37594.6719" gradientTransform="matrix(1 0 0 1 39660.5117 -36123.4219)">
						<stop  offset="0.0289" style="stop-color:#A197C9"/>
						<stop  offset="0.66" style="stop-color:#7C6EAF"/>
					</linearGradient>
					<path class="st20" d="M521.19,1832.3c-11.49-97.57-74.58-119.39-134.6-183.89c-77.65-83.44-73.3-199.12-36.02-260.66
						c-9.13,61.68,2.19,118.31,39.81,166.82c-21.98-73.87-18.2-151.53,18.01-211.37c-5.14,39.91-4.33,61.51,8.53,97.63
						c3.79-77.7,36.83-132.4,98.58-179.15c-24.67,41.59-37.08,94.98-30.34,137.44c27.3-111.61,103.85-159.45,158.53-175.36
						c-18.74,23.2-30.2,49.59-35.3,78.68c40.46-84.39,119.79-96.25,163.04-122.27c31.13-18.74,18.19-53.26-0.69-53.26
						c-10.25,0-16.18,5.93-22.11,17.26c4.31-22.65,18.88-33.98,34.52-33.98c22.92,0,40.25,22.65,40.25,50.54
						c0,74.48-98.94,127.15-211.2,191c-96.68,54.97-140.23,96.08-154.5,172.51c-14.47,77.52,25.59,151.66,25.59,151.66
						s-36.92-127.71,19.96-206.52c51.78-71.73,130.9-103.21,203.86-146.16c80.68-47.48,154.79-97.62,132.57-179.08
						c40.79,40.79,54.86,104.76,22.75,144.08c-41.28,50.53-123.06,61.44-155.45,93.84c56.76-28.63,108.83-17.75,149.76-34.12
						c40.2-16.09,39.81-61.61,39.81-61.61c16.58,57.39-0.03,123.59-66.35,147.87c-69.63,25.49-149.86-7.51-221.8,33.17
						c77.17-26.77,166.75-13.72,216.33,68.25c-19.68-19.68-57.4-26.54-86.47-26.54c67.33,37.63,59.5,136.79-2.07,156.02
						c0,0,19.83-14.01,19.83-49.68c0-47.83-42.16-87.79-120.9-87.79c-53.39,0-98.97,22.65-118.66,60.12
						c21.3-25.06,57.31-42.65,97.63-42.65c57.42,0,80.08,42.22,80.57,75.29c0.51,34.86-21.99,58.68-40.76,68.78
						c24.62-27.25,5.21-64.46-29.38-64.46c-50.28,0-71.12,60.94-61.61,110.9c11.53-42.42,34.18-64.53,75.83-72.04
						c-30.32,24.23-41.65,49.04-36.96,90.05c26.6-58.81,79.62-29.38,104.27-88.15c5.92,32.58,0.52,81.88-46.58,104.76
						C606.73,1795.86,562.89,1783.96,521.19,1832.3z"/>
					<path class="st11" d="M601.76,1753.63c-4.69-41.01,6.64-65.82,36.96-90.05c-41.65,7.51-64.3,29.62-75.83,72.04
						c-9.51-49.97,11.33-110.9,61.61-110.9c34.59,0,54.01,37.21,29.38,64.46c35.05-26.44,29.1-86.68-13.09-103.61
						c-33.14-13.3-94.34-0.32-113.74,62.55c-19.73,63.93,28.38,108.5-5.87,184.18c41.71-48.34,85.54-36.44,138.26-62.06
						c47.1-22.88,52.5-72.18,46.58-104.76C681.38,1724.24,628.35,1694.82,601.76,1753.63z M824.72,1535.62
						c-19.68-19.68-57.4-26.54-86.47-26.54c67.33,37.63,59.5,136.79-2.07,156.02c0,0,19.83-14.01,19.83-49.68
						c0-47.83-42.16-87.79-120.9-87.79c-53.39,0-98.97,22.65-118.66,60.12C532.22,1465.59,742.08,1438.73,824.72,1535.62z
						 M830.19,1434.2c-69.63,25.49-149.86-7.51-221.8,33.17c0,0,36.45-54.08,159.6-64.54c97-8.23,138.51-39.88,128.55-116.5
						C913.12,1343.72,896.51,1409.92,830.19,1434.2z M842.05,1269.69c30.9-36.35,25.26-86.68-2.38-125.54
						c40.79,40.79,54.86,104.76,22.75,144.08c-41.28,50.53-123.06,61.44-155.45,93.84C743.96,1322.84,799.42,1319.84,842.05,1269.69
						z M612.18,1351.74c-96.68,54.97-140.23,96.08-154.5,172.51c-14.47,77.52,25.59,151.66,25.59,151.66s-46.55-59.05-46.55-133.57
						c0-91.79,65.44-148.14,136.32-192.67c70.9-44.53,144.06-81.41,192.67-122.69c55.42-47.05,52.71-107.24,17.43-116.78
						c22.92,0,40.25,22.65,40.25,50.54C823.39,1235.22,724.45,1287.89,612.18,1351.74z M490.23,1842.29
						c-3.18-34.75-24.56-67.69-61.96-96.23c-61.55-46.98-110.73-91.04-133.27-152.97c-28.53-78.4-2.04-161.93,33.77-197.75
						c-28.53,33.96-46.79,132.24,8.53,223.69C391.77,1709.06,502.69,1740.67,490.23,1842.29z M378.5,1843.91
						c0,17.06,13.92,27.94,27.19,27.94c19.43,0,29.29-21.27,17.86-36.7c24.21,19.58,11.37,60.08-26.82,60.08
						c-25.69,0-49.08-19.76-49.08-49.72c0-55.31,82.04-67.4,111.74-33.15c-10.39-4.35-22.3-6.59-34.44-6.59
						C403.49,1805.76,378.5,1816.9,378.5,1843.91z"/>
				</g>
				<g class="st18">
					
						<linearGradient id="SVGID_17_" gradientUnits="userSpaceOnUse" x1="-40070.6836" y1="37882.7305" x2="-39884.1875" y2="37754" gradientTransform="matrix(1 0 0 1 39660.5117 -36123.4219)">
						<stop  offset="0.0289" style="stop-color:#A197C9"/>
						<stop  offset="0.66" style="stop-color:#7C6EAF"/>
					</linearGradient>
					<path class="st21" d="M-271,1395.34c-28.53,33.96-46.79,132.24,8.53,223.69c54.47,90.03,165.39,121.63,152.93,223.26
						c-8.77-24.02-36.42-36.53-65.27-36.53c-21.47,0-46.45,11.14-46.45,38.14c0,17.06,13.92,27.94,27.19,27.94
						c19.43,0,29.29-21.27,17.86-36.7c10.9,3.99,21.81,14.55,21.81,35.84c0,23.78-21.84,48.73-58.63,48.73
						c-37.21,0-72.52-31.82-72.52-73.35c0-66.11,72.03-89.75,118.82-67.15c-54.51-48.99-166.17-7.71-199.14-109.63
						c18.84,21.86,43.06,17.49,43.06,17.49c-16.82-8.41-34.4-25.68-45.1-53.14c-16.87-43.32-6.75-67.41-33.89-93.59
						c33.33,12.67,61.46,37.43,78.67,69.2c-18.96-64.45-43-111.85-104.26-149.76c39.76,7.96,60.71,16.68,93.83,45.5
						C-325.72,1452.33-306.98,1427.16-271,1395.34z"/>
					
						<linearGradient id="SVGID_18_" gradientUnits="userSpaceOnUse" x1="-39935.6406" y1="37594.6719" x2="-39597.2656" y2="37594.6719" gradientTransform="matrix(1 0 0 1 39660.5117 -36123.4219)">
						<stop  offset="0.0289" style="stop-color:#A197C9"/>
						<stop  offset="0.66" style="stop-color:#7C6EAF"/>
					</linearGradient>
					<path class="st22" d="M-78.58,1832.3c-11.49-97.57-74.58-119.39-134.6-183.89c-77.65-83.44-73.3-199.12-36.02-260.66
						c-9.13,61.68,2.19,118.31,39.81,166.82c-21.98-73.87-18.2-151.53,18.01-211.37c-5.14,39.91-4.33,61.51,8.53,97.63
						c3.79-77.7,36.83-132.4,98.58-179.15c-24.67,41.59-37.08,94.98-30.34,137.44c27.3-111.61,103.85-159.45,158.53-175.36
						c-18.74,23.2-30.2,49.59-35.3,78.68c40.46-84.39,119.79-96.25,163.04-122.27c31.13-18.74,18.19-53.26-0.69-53.26
						c-10.25,0-16.18,5.93-22.11,17.26c4.31-22.65,18.88-33.98,34.52-33.98c22.92,0,40.25,22.65,40.25,50.54
						c0,74.48-98.94,127.15-211.2,191c-96.68,54.97-140.23,96.08-154.5,172.51c-14.47,77.52,25.59,151.66,25.59,151.66
						s-36.92-127.71,19.96-206.52c51.78-71.73,130.9-103.21,203.86-146.16c80.68-47.48,154.79-97.62,132.57-179.08
						c40.79,40.79,54.86,104.76,22.75,144.08c-41.28,50.53-123.06,61.44-155.45,93.84c56.76-28.63,108.83-17.75,149.76-34.12
						c40.21-16.09,39.81-61.61,39.81-61.61c16.58,57.39-0.03,123.59-66.35,147.87c-69.63,25.49-149.86-7.51-221.8,33.17
						c77.17-26.77,166.75-13.72,216.33,68.25c-19.68-19.68-57.4-26.54-86.47-26.54c67.33,37.63,59.5,136.79-2.07,156.02
						c0,0,19.83-14.01,19.83-49.68c0-47.83-42.16-87.79-120.9-87.79c-53.39,0-98.97,22.65-118.66,60.12
						c21.3-25.06,57.31-42.65,97.63-42.65c57.42,0,80.08,42.22,80.57,75.29c0.51,34.86-21.99,58.68-40.76,68.78
						c24.62-27.25,5.21-64.46-29.38-64.46c-50.27,0-71.11,60.94-61.61,110.9c11.53-42.42,34.18-64.53,75.83-72.04
						c-30.32,24.23-41.65,49.04-36.96,90.05c26.6-58.81,79.62-29.38,104.27-88.15c5.92,32.58,0.52,81.88-46.58,104.76
						C6.96,1795.86-36.88,1783.96-78.58,1832.3z"/>
					<path class="st11" d="M1.99,1753.63c-4.69-41.01,6.64-65.82,36.96-90.05c-41.65,7.51-64.3,29.62-75.83,72.04
						c-9.51-49.97,11.33-110.9,61.61-110.9c34.59,0,54.01,37.21,29.38,64.46c35.05-26.44,29.1-86.68-13.09-103.61
						c-33.14-13.3-94.34-0.32-113.74,62.55c-19.73,63.93,28.38,108.5-5.87,184.18c41.7-48.34,85.54-36.44,138.26-62.06
						c47.1-22.88,52.5-72.18,46.58-104.76C81.6,1724.24,28.58,1694.82,1.99,1753.63z M224.95,1535.62
						c-19.68-19.68-57.4-26.54-86.47-26.54c67.33,37.63,59.5,136.79-2.07,156.02c0,0,19.83-14.01,19.83-49.68
						c0-47.83-42.16-87.79-120.9-87.79c-53.39,0-98.97,22.65-118.66,60.12C-67.55,1465.59,142.31,1438.73,224.95,1535.62z
						 M230.41,1434.2c-69.63,25.49-149.86-7.51-221.8,33.17c0,0,36.45-54.08,159.6-64.54c97-8.23,138.51-39.88,128.55-116.5
						C313.34,1343.72,296.73,1409.92,230.41,1434.2z M242.28,1269.69c30.9-36.35,25.26-86.68-2.38-125.54
						c40.79,40.79,54.86,104.76,22.75,144.08c-41.28,50.53-123.06,61.44-155.45,93.84C144.18,1322.84,199.65,1319.84,242.28,1269.69
						z M12.41,1351.74c-96.68,54.97-140.23,96.08-154.5,172.51c-14.47,77.52,25.59,151.66,25.59,151.66s-46.55-59.05-46.55-133.57
						c0-91.79,65.44-148.14,136.32-192.67c70.9-44.53,144.06-81.41,192.67-122.69c55.42-47.05,52.71-107.24,17.43-116.78
						c22.92,0,40.25,22.65,40.25,50.54C223.61,1235.22,124.67,1287.89,12.41,1351.74z M-109.54,1842.29
						c-3.18-34.75-24.56-67.69-61.96-96.23c-61.55-46.98-110.73-91.04-133.27-152.97c-28.53-78.4-2.04-161.93,33.77-197.75
						c-28.53,33.96-46.79,132.24,8.53,223.69C-208.01,1709.06-97.08,1740.67-109.54,1842.29z M-221.27,1843.91
						c0,17.06,13.92,27.94,27.19,27.94c19.43,0,29.29-21.27,17.86-36.7c24.21,19.58,11.37,60.08-26.82,60.08
						c-25.69,0-49.08-19.76-49.08-49.72c0-55.31,82.04-67.4,111.74-33.15c-10.39-4.35-22.3-6.59-34.44-6.59
						C-196.29,1805.76-221.27,1816.9-221.27,1843.91z"/>
				</g>
				<g class="st18">
					
						<linearGradient id="SVGID_19_" gradientUnits="userSpaceOnUse" x1="-39470.9063" y1="37289.7305" x2="-39284.4141" y2="37161" gradientTransform="matrix(1 0 0 1 39660.5117 -36123.4219)">
						<stop  offset="0.0289" style="stop-color:#A197C9"/>
						<stop  offset="0.66" style="stop-color:#7C6EAF"/>
					</linearGradient>
					<path class="st23" d="M328.77,802.34c-28.53,33.96-46.79,132.24,8.53,223.69c54.47,90.03,165.39,121.63,152.93,223.26
						c-8.77-24.02-36.42-36.53-65.27-36.53c-21.47,0-46.45,11.14-46.45,38.14c0,17.06,13.92,27.94,27.19,27.94
						c19.43,0,29.29-21.27,17.86-36.7c10.9,3.99,21.81,14.55,21.81,35.84c0,23.78-21.84,48.73-58.63,48.73
						c-37.21,0-72.52-31.82-72.52-73.35c0-66.11,72.03-89.75,118.82-67.15c-54.51-48.99-166.17-7.71-199.14-109.63
						c18.84,21.86,43.06,17.49,43.06,17.49c-16.82-8.41-34.4-25.68-45.1-53.14c-16.88-43.32-6.75-67.41-33.89-93.59
						c33.33,12.67,61.46,37.43,78.67,69.2c-18.96-64.45-43-111.85-104.26-149.76c39.76,7.96,60.71,16.68,93.83,45.5
						C274.05,859.33,292.79,834.16,328.77,802.34z"/>
					
						<linearGradient id="SVGID_20_" gradientUnits="userSpaceOnUse" x1="-39335.8633" y1="37001.6758" x2="-38997.4922" y2="37001.6758" gradientTransform="matrix(1 0 0 1 39660.5117 -36123.4219)">
						<stop  offset="0.0289" style="stop-color:#A197C9"/>
						<stop  offset="0.66" style="stop-color:#7C6EAF"/>
					</linearGradient>
					<path class="st24" d="M521.19,1239.3c-11.49-97.57-74.58-119.39-134.6-183.89c-77.65-83.43-73.3-199.12-36.02-260.66
						c-9.13,61.68,2.19,118.31,39.81,166.82c-21.98-73.87-18.2-151.53,18.01-211.37c-5.14,39.91-4.33,61.51,8.53,97.63
						c3.79-77.7,36.83-132.4,98.58-179.15c-24.67,41.59-37.08,94.98-30.34,137.44c27.3-111.61,103.85-159.45,158.53-175.36
						c-18.74,23.2-30.2,49.59-35.3,78.68c40.46-84.39,119.79-96.25,163.04-122.27c31.13-18.74,18.19-53.26-0.69-53.26
						c-10.25,0-16.18,5.93-22.11,17.26c4.31-22.65,18.88-33.98,34.52-33.98c22.92,0,40.25,22.65,40.25,50.54
						c0,74.48-98.94,127.15-211.2,191c-96.68,54.97-140.23,96.08-154.5,172.51c-14.47,77.52,25.59,151.66,25.59,151.66
						s-36.92-127.71,19.96-206.52c51.78-71.73,130.9-103.21,203.86-146.16c80.68-47.48,154.79-97.62,132.57-179.08
						c40.79,40.79,54.86,104.76,22.75,144.07c-41.28,50.53-123.06,61.45-155.45,93.84c56.76-28.64,108.83-17.75,149.76-34.12
						c40.2-16.09,39.81-61.61,39.81-61.61c16.58,57.39-0.03,123.59-66.35,147.87c-69.63,25.49-149.86-7.51-221.8,33.17
						c77.17-26.77,166.75-13.72,216.33,68.25c-19.68-19.68-57.4-26.54-86.47-26.54c67.33,37.63,59.5,136.79-2.07,156.02
						c0,0,19.83-14.01,19.83-49.68c0-47.83-42.16-87.79-120.9-87.79c-53.39,0-98.97,22.65-118.66,60.12
						c21.3-25.06,57.31-42.65,97.63-42.65c57.42,0,80.08,42.22,80.57,75.29c0.51,34.86-21.99,58.68-40.76,68.78
						c24.62-27.25,5.21-64.46-29.38-64.46c-50.28,0-71.12,60.93-61.61,110.9c11.53-42.42,34.18-64.53,75.83-72.04
						c-30.32,24.23-41.65,49.04-36.96,90.05c26.6-58.81,79.62-29.38,104.27-88.15c5.92,32.58,0.52,81.88-46.58,104.76
						C606.73,1202.86,562.89,1190.96,521.19,1239.3z"/>
					<path class="st11" d="M296.73,1218.13c-1.37-22.99,33.72-44.73,65.71-43.75C324.05,1159.44,265.37,1176.48,296.73,1218.13z"/>
					<path class="st11" d="M601.76,1160.63c-4.69-41.01,6.64-65.82,36.96-90.05c-41.65,7.51-64.3,29.62-75.83,72.04
						c-9.51-49.97,11.33-110.9,61.61-110.9c34.59,0,54.01,37.2,29.38,64.46c35.05-26.44,29.1-86.68-13.09-103.61
						c-33.14-13.3-94.34-0.32-113.74,62.55c-19.73,63.94,28.38,108.5-5.87,184.18c41.71-48.34,85.54-36.44,138.26-62.06
						c47.1-22.88,52.5-72.19,46.58-104.76C681.38,1131.25,628.35,1101.82,601.76,1160.63z M824.72,942.62
						c-19.68-19.68-57.4-26.54-86.47-26.54c67.33,37.63,59.5,136.79-2.07,156.02c0,0,19.83-14.01,19.83-49.68
						c0-47.83-42.16-87.79-120.9-87.79c-53.39,0-98.97,22.65-118.66,60.12C532.22,872.59,742.08,845.73,824.72,942.62z
						 M830.19,841.2c-69.63,25.49-149.86-7.51-221.8,33.17c0,0,36.45-54.08,159.6-64.54c97-8.23,138.51-39.88,128.55-116.5
						C913.12,750.72,896.51,816.93,830.19,841.2z M842.05,676.69c30.9-36.35,25.26-86.68-2.38-125.54
						c40.79,40.79,54.86,104.76,22.75,144.07c-41.28,50.53-123.06,61.45-155.45,93.84C743.96,729.84,799.42,726.84,842.05,676.69z
						 M612.18,758.74c-96.68,54.97-140.23,96.08-154.5,172.51c-14.47,77.52,25.59,151.66,25.59,151.66s-46.55-59.05-46.55-133.57
						c0-91.79,65.44-148.14,136.32-192.67c70.9-44.53,144.06-81.41,192.67-122.69c55.42-47.05,52.71-107.24,17.43-116.78
						c22.92,0,40.25,22.65,40.25,50.54C823.39,642.22,724.45,694.9,612.18,758.74z M490.23,1249.29
						c-3.18-34.75-24.56-67.69-61.96-96.23c-61.55-46.98-110.73-91.04-133.27-152.97c-28.53-78.4-2.04-161.93,33.77-197.75
						c-28.53,33.96-46.79,132.24,8.53,223.69C391.77,1116.07,502.69,1147.67,490.23,1249.29z M378.5,1250.91
						c0,17.06,13.92,27.94,27.19,27.94c19.43,0,29.29-21.27,17.86-36.7c24.21,19.58,11.37,60.08-26.82,60.08
						c-25.69,0-49.08-19.76-49.08-49.72c0-55.31,82.04-67.4,111.74-33.15c-10.39-4.35-22.3-6.59-34.44-6.59
						C403.49,1212.76,378.5,1223.9,378.5,1250.91z"/>
					<path class="st11" d="M386.13,1356.51c-22.93,10.1-58.36-17.47-69.47-50.48C315.95,1350.85,355.52,1404.25,386.13,1356.51z"/>
				</g>
				<g class="st18">
					
						<linearGradient id="SVGID_21_" gradientUnits="userSpaceOnUse" x1="-40070.6836" y1="37289.7305" x2="-39884.1875" y2="37161" gradientTransform="matrix(1 0 0 1 39660.5117 -36123.4219)">
						<stop  offset="0.0289" style="stop-color:#A197C9"/>
						<stop  offset="0.66" style="stop-color:#7C6EAF"/>
					</linearGradient>
					<path class="st25" d="M-271,802.34c-28.53,33.96-46.79,132.24,8.53,223.69c54.47,90.03,165.39,121.63,152.93,223.26
						c-8.77-24.02-36.42-36.53-65.27-36.53c-21.47,0-46.45,11.14-46.45,38.14c0,17.06,13.92,27.94,27.19,27.94
						c19.43,0,29.29-21.27,17.86-36.7c10.9,3.99,21.81,14.55,21.81,35.84c0,23.78-21.84,48.73-58.63,48.73
						c-37.21,0-72.52-31.82-72.52-73.35c0-66.11,72.03-89.75,118.82-67.15c-54.51-48.99-166.17-7.71-199.14-109.63
						c18.84,21.86,43.06,17.49,43.06,17.49c-16.82-8.41-34.4-25.68-45.1-53.14c-16.87-43.32-6.75-67.41-33.89-93.59
						c33.33,12.67,61.46,37.43,78.67,69.2c-18.96-64.45-43-111.85-104.26-149.76c39.76,7.96,60.71,16.68,93.83,45.5
						C-325.72,859.33-306.98,834.16-271,802.34z"/>
					
						<linearGradient id="SVGID_22_" gradientUnits="userSpaceOnUse" x1="-39935.6406" y1="37001.6758" x2="-39597.2656" y2="37001.6758" gradientTransform="matrix(1 0 0 1 39660.5117 -36123.4219)">
						<stop  offset="0.0289" style="stop-color:#A197C9"/>
						<stop  offset="0.66" style="stop-color:#7C6EAF"/>
					</linearGradient>
					<path class="st26" d="M-78.58,1239.3c-11.49-97.57-74.58-119.39-134.6-183.89c-77.65-83.43-73.3-199.12-36.02-260.66
						c-9.13,61.68,2.19,118.31,39.81,166.82c-21.98-73.87-18.2-151.53,18.01-211.37c-5.14,39.91-4.33,61.51,8.53,97.63
						c3.79-77.7,36.83-132.4,98.58-179.15c-24.67,41.59-37.08,94.98-30.34,137.44c27.3-111.61,103.85-159.45,158.53-175.36
						c-18.74,23.2-30.2,49.59-35.3,78.68c40.46-84.39,119.79-96.25,163.04-122.27c31.13-18.74,18.19-53.26-0.69-53.26
						c-10.25,0-16.18,5.93-22.11,17.26c4.31-22.65,18.88-33.98,34.52-33.98c22.92,0,40.25,22.65,40.25,50.54
						c0,74.48-98.94,127.15-211.2,191c-96.68,54.97-140.23,96.08-154.5,172.51c-14.47,77.52,25.59,151.66,25.59,151.66
						s-36.92-127.71,19.96-206.52c51.78-71.73,130.9-103.21,203.86-146.16c80.68-47.48,154.79-97.62,132.57-179.08
						c40.79,40.79,54.86,104.76,22.75,144.07c-41.28,50.53-123.06,61.45-155.45,93.84c56.76-28.64,108.83-17.75,149.76-34.12
						c40.21-16.09,39.81-61.61,39.81-61.61c16.58,57.39-0.03,123.59-66.35,147.87c-69.63,25.49-149.86-7.51-221.8,33.17
						c77.17-26.77,166.75-13.72,216.33,68.25c-19.68-19.68-57.4-26.54-86.47-26.54c67.33,37.63,59.5,136.79-2.07,156.02
						c0,0,19.83-14.01,19.83-49.68c0-47.83-42.16-87.79-120.9-87.79c-53.39,0-98.97,22.65-118.66,60.12
						c21.3-25.06,57.31-42.65,97.63-42.65c57.42,0,80.08,42.22,80.57,75.29c0.51,34.86-21.99,58.68-40.76,68.78
						c24.62-27.25,5.21-64.46-29.38-64.46c-50.27,0-71.11,60.93-61.61,110.9c11.53-42.42,34.18-64.53,75.83-72.04
						c-30.32,24.23-41.65,49.04-36.96,90.05c26.6-58.81,79.62-29.38,104.27-88.15c5.92,32.58,0.52,81.88-46.58,104.76
						C6.96,1202.86-36.88,1190.96-78.58,1239.3z"/>
					<path class="st11" d="M-303.04,1218.13c-1.37-22.99,33.72-44.73,65.71-43.75C-275.72,1159.44-334.4,1176.48-303.04,1218.13z"/>
					<path class="st11" d="M119.19,1138.32c5.11,24.53-29.21,53.47-63.8,57.48C99.08,1205.8,159.54,1178.18,119.19,1138.32z"/>
					<path class="st11" d="M1.99,1160.63c-4.69-41.01,6.64-65.82,36.96-90.05c-41.65,7.51-64.3,29.62-75.83,72.04
						c-9.51-49.97,11.33-110.9,61.61-110.9c34.59,0,54.01,37.2,29.38,64.46c35.05-26.44,29.1-86.68-13.09-103.61
						c-33.14-13.3-94.34-0.32-113.74,62.55c-19.73,63.94,28.38,108.5-5.87,184.18c41.7-48.34,85.54-36.44,138.26-62.06
						c47.1-22.88,52.5-72.19,46.58-104.76C81.6,1131.25,28.58,1101.82,1.99,1160.63z M224.95,942.62
						c-19.68-19.68-57.4-26.54-86.47-26.54c67.33,37.63,59.5,136.79-2.07,156.02c0,0,19.83-14.01,19.83-49.68
						c0-47.83-42.16-87.79-120.9-87.79c-53.39,0-98.97,22.65-118.66,60.12C-67.55,872.59,142.31,845.73,224.95,942.62z
						 M230.41,841.2c-69.63,25.49-149.86-7.51-221.8,33.17c0,0,36.45-54.08,159.6-64.54c97-8.23,138.51-39.88,128.55-116.5
						C313.34,750.72,296.73,816.93,230.41,841.2z M242.28,676.69c30.9-36.35,25.26-86.68-2.38-125.54
						c40.79,40.79,54.86,104.76,22.75,144.07c-41.28,50.53-123.06,61.45-155.45,93.84C144.18,729.84,199.65,726.84,242.28,676.69z
						 M12.41,758.74c-96.68,54.97-140.23,96.08-154.5,172.51c-14.47,77.52,25.59,151.66,25.59,151.66s-46.55-59.05-46.55-133.57
						c0-91.79,65.44-148.14,136.32-192.67c70.9-44.53,144.06-81.41,192.67-122.69c55.42-47.05,52.71-107.24,17.43-116.78
						c22.92,0,40.25,22.65,40.25,50.54C223.61,642.22,124.67,694.9,12.41,758.74z M-109.54,1249.29
						c-3.18-34.75-24.56-67.69-61.96-96.23c-61.55-46.98-110.73-91.04-133.27-152.97c-28.53-78.4-2.04-161.93,33.77-197.75
						c-28.53,33.96-46.79,132.24,8.53,223.69C-208.01,1116.07-97.08,1147.67-109.54,1249.29z M-221.27,1250.91
						c0,17.06,13.92,27.94,27.19,27.94c19.43,0,29.29-21.27,17.86-36.7c24.21,19.58,11.37,60.08-26.82,60.08
						c-25.69,0-49.08-19.76-49.08-49.72c0-55.31,82.04-67.4,111.74-33.15c-10.39-4.35-22.3-6.59-34.44-6.59
						C-196.29,1212.76-221.27,1223.9-221.27,1250.91z"/>
					<path class="st11" d="M167.84,1087.84c24.78-3.62,40.16-45.81,32.03-79.67C224.29,1045.75,219.14,1112.02,167.84,1087.84z"/>
					<path class="st11" d="M-213.64,1356.51c-22.93,10.1-58.37-17.47-69.47-50.48C-283.83,1350.85-244.25,1404.25-213.64,1356.51z"
						/>
				</g>
			</g>
		</g>
	</g>
</g>
<g>
	<path class="st0" d="M316.42,885.54c-0.57,1.8-0.9,3.64-0.9,5.51c0,23.14,45.26,41.89,101.1,41.89s101.1-18.76,101.1-41.89
		c0-1.87-0.33-3.7-0.9-5.51H316.42z"/>
</g>
</svg>
