<?xml version="1.0" encoding="utf-8"?>
<!-- Generator: Adobe Illustrator 24.2.0, SVG Export Plug-In . SVG Version: 6.00 Build 0)  -->
<svg version="1.1" id="Ñëîé_5" xmlns="http://www.w3.org/2000/svg" xmlns:xlink="http://www.w3.org/1999/xlink" x="0px" y="0px"
	 viewBox="0 0 500 500" style="enable-background:new 0 0 500 500;" xml:space="preserve">
<style type="text/css">
	.st0{fill:url(#SVGID_1_);}
	.st1{fill:url(#SVGID_2_);}
	.st2{fill:url(#SVGID_3_);}
	.st3{fill:url(#SVGID_4_);}
	.st4{fill:url(#SVGID_5_);}
	.st5{fill:url(#SVGID_6_);}
	.st6{fill:url(#SVGID_7_);}
	.st7{fill:#EEFDFF;}
	.st8{fill:url(#SVGID_8_);}
	.st9{fill:url(#SVGID_9_);}
	.st10{fill:url(#SVGID_10_);}
	.st11{fill:url(#SVGID_11_);}
	.st12{fill:#FFFFFF;}
	.st13{fill:url(#SVGID_12_);}
	.st14{fill:url(#SVGID_13_);}
	.st15{fill:url(#SVGID_14_);}
	.st16{fill:url(#SVGID_15_);}
	.st17{fill:url(#SVGID_16_);}
	.st18{fill:url(#SVGID_17_);}
	.st19{fill:url(#SVGID_18_);}
	.st20{fill:url(#SVGID_19_);}
	.st21{fill:url(#SVGID_20_);}
	.st22{fill:url(#SVGID_21_);}
	.st23{fill:url(#SVGID_22_);}
	.st24{fill:url(#SVGID_23_);}
	.st25{fill:url(#SVGID_24_);}
</style>
<g>
	<linearGradient id="SVGID_1_" gradientUnits="userSpaceOnUse" x1="141.9633" y1="197.7943" x2="154.8226" y2="232.6981">
		<stop  offset="0" style="stop-color:#AEF0EB"/>
		<stop  offset="0.0131" style="stop-color:#B0F0EB"/>
		<stop  offset="0.1379" style="stop-color:#C2F4EB"/>
		<stop  offset="0.2895" style="stop-color:#CEF6EA"/>
		<stop  offset="0.4961" style="stop-color:#D5F8EA"/>
		<stop  offset="1" style="stop-color:#D7F8EA"/>
	</linearGradient>
	<path class="st0" d="M161.47,200.1c0,0,2.07,27.96,13.71,34.55c0,0-37.35-6.45-46.54-20.44
		C119.46,200.22,161.47,200.1,161.47,200.1z"/>
	
		<linearGradient id="SVGID_2_" gradientUnits="userSpaceOnUse" x1="126.9213" y1="325.6419" x2="205.8182" y2="244.7011" gradientTransform="matrix(0.1117 0.9937 -0.9937 0.1117 521.1897 134.5915)">
		<stop  offset="0.0397" style="stop-color:#06BED8"/>
		<stop  offset="1" style="stop-color:#DEFA8E"/>
	</linearGradient>
	<path class="st1" d="M198.68,282.58c23.02,6.3,28.46,4.54,32.56,10.71c0.47,0.71,2.88,4.33,2.39,8.97
		c-0.38,3.7-2.45,6.56-3.74,7.82c-7.88,7.63-29.58-1.71-42.01-11.92c-2.71-2.23-9.98-8.2-8.51-12.44c0.6-1.74,2.46-2.6,3.8-3.2
		C189.07,279.87,195.21,281.63,198.68,282.58z"/>
	<linearGradient id="SVGID_3_" gradientUnits="userSpaceOnUse" x1="257.3087" y1="145.3989" x2="272.0051" y2="143.2557">
		<stop  offset="0.0397" style="stop-color:#06CFF1"/>
		<stop  offset="1" style="stop-color:#DEFA8E"/>
	</linearGradient>
	<rect x="264.84" y="127.87" class="st2" width="4.9" height="32.15"/>
	<linearGradient id="SVGID_4_" gradientUnits="userSpaceOnUse" x1="253.5602" y1="182.7164" x2="279.641" y2="153.2704">
		<stop  offset="0.0397" style="stop-color:#06CFF1"/>
		<stop  offset="1" style="stop-color:#DEFA8E"/>
	</linearGradient>
	<path class="st3" d="M284.21,177.78h-33.83c-2.49,0-4.52-2.02-4.52-4.52v-12.09c0-2.49,2.02-4.52,4.52-4.52h33.83
		c2.49,0,4.52,2.02,4.52,4.52v12.09C288.73,175.75,286.7,177.78,284.21,177.78z"/>
	<linearGradient id="SVGID_5_" gradientUnits="userSpaceOnUse" x1="215.7845" y1="284.7118" x2="319.1329" y2="181.3633">
		<stop  offset="0.0397" style="stop-color:#06CFF1"/>
		<stop  offset="1" style="stop-color:#DEFA8E"/>
	</linearGradient>
	<path class="st4" d="M343.99,248.04c0,19.53-15.83,35.36-35.36,35.36h-82.67c-19.45,0-35.36-15.91-35.36-35.36v-18.37
		c0-34.61,28.31-62.92,62.92-62.92h27.56c34.61,0,62.92,28.31,62.92,62.92V248.04z"/>
	<linearGradient id="SVGID_6_" gradientUnits="userSpaceOnUse" x1="267.0208" y1="246.056" x2="267.9394" y2="204.7225">
		<stop  offset="0" style="stop-color:#030D14"/>
		<stop  offset="1" style="stop-color:#0B2F45"/>
	</linearGradient>
	<path class="st5" d="M319.86,244.69L319.86,244.69c-2.01,0.99-4.26,1.51-6.54,1.51h-92.05c-2.29,0-4.54-0.52-6.54-1.51l0,0
		c-4.93-2.44-7.71-7.36-7.02-12.41l0.05-0.37c2.36-17.1,17.85-30.25,36.83-31.23c8.03-0.42,16.46-0.63,25.26-0.58
		c6.89,0.04,13.55,0.24,19.96,0.57c19.06,0.98,34.66,14.08,37.03,31.24c0.02,0.12,0.03,0.25,0.05,0.37
		C327.57,237.34,324.79,242.26,319.86,244.69z"/>
	<g>
		<radialGradient id="SVGID_7_" cx="243.0316" cy="225.0789" r="17.1784" gradientUnits="userSpaceOnUse">
			<stop  offset="0.1296" style="stop-color:#3280FC"/>
			<stop  offset="1" style="stop-color:#000000"/>
		</radialGradient>
		<circle class="st6" cx="243.03" cy="225.08" r="17.36"/>
		<g>
			<circle class="st7" cx="243.03" cy="225.08" r="12.46"/>
		</g>
		<g>
			<linearGradient id="SVGID_8_" gradientUnits="userSpaceOnUse" x1="232.5672" y1="225.0789" x2="253.496" y2="225.0789">
				<stop  offset="0" style="stop-color:#030D14"/>
				<stop  offset="1" style="stop-color:#0B2F45"/>
			</linearGradient>
			<circle class="st8" cx="243.03" cy="225.08" r="10.46"/>
		</g>
		<g>
			<path class="st7" d="M249.74,222.37c0,2.14-1.74,3.88-3.88,3.88c-2.14,0-3.88-1.74-3.88-3.88s1.74-3.88,3.88-3.88
				C248,218.49,249.74,220.23,249.74,222.37z"/>
		</g>
		<g>
			<circle class="st7" cx="241.49" cy="233.1" r="1.55"/>
		</g>
		<g>
			<path class="st7" d="M237.65,230.78c0,0.43-0.35,0.77-0.77,0.77c-0.43,0-0.77-0.35-0.77-0.77c0-0.43,0.35-0.77,0.77-0.77
				C237.3,230.01,237.65,230.36,237.65,230.78z"/>
		</g>
	</g>
	<g>
		<radialGradient id="SVGID_9_" cx="289.9238" cy="225.0789" r="17.1784" gradientUnits="userSpaceOnUse">
			<stop  offset="0.1296" style="stop-color:#3280FC"/>
			<stop  offset="1" style="stop-color:#000000"/>
		</radialGradient>
		<circle class="st9" cx="289.92" cy="225.08" r="17.36"/>
		<g>
			<circle class="st7" cx="289.92" cy="225.08" r="12.46"/>
		</g>
		<g>
			<linearGradient id="SVGID_10_" gradientUnits="userSpaceOnUse" x1="279.4594" y1="225.0789" x2="300.3882" y2="225.0789">
				<stop  offset="0" style="stop-color:#030D14"/>
				<stop  offset="1" style="stop-color:#0B2F45"/>
			</linearGradient>
			<circle class="st10" cx="289.92" cy="225.08" r="10.46"/>
		</g>
		<g>
			<path class="st7" d="M296.63,222.37c0,2.14-1.74,3.88-3.88,3.88s-3.88-1.74-3.88-3.88s1.74-3.88,3.88-3.88
				S296.63,220.23,296.63,222.37z"/>
		</g>
		<g>
			<circle class="st7" cx="288.38" cy="233.1" r="1.55"/>
		</g>
		<g>
			<path class="st7" d="M284.54,230.78c0,0.43-0.35,0.77-0.77,0.77c-0.43,0-0.77-0.35-0.77-0.77c0-0.43,0.35-0.77,0.77-0.77
				C284.2,230.01,284.54,230.36,284.54,230.78z"/>
		</g>
	</g>
	<linearGradient id="SVGID_11_" gradientUnits="userSpaceOnUse" x1="254.0799" y1="127.6524" x2="273.5292" y2="124.816">
		<stop  offset="0.0397" style="stop-color:#06CFF1"/>
		<stop  offset="1" style="stop-color:#DEFA8E"/>
	</linearGradient>
	<path class="st11" d="M273.57,125.73c0,3.47-2.81,6.28-6.28,6.28c-3.47,0-6.28-2.81-6.28-6.28c0-3.47,2.81-6.28,6.28-6.28
		C270.76,119.45,273.57,122.26,273.57,125.73z"/>
	<path class="st12" d="M271.66,123.28c0,1.06-0.86,1.91-1.91,1.91c-1.06,0-1.91-0.86-1.91-1.91c0-1.06,0.86-1.91,1.91-1.91
		C270.8,121.36,271.66,122.22,271.66,123.28z"/>
	<path class="st12" d="M321.34,186.88c0.08,2.93-2.31,6.43-5.05,6.73c-2.57,0.28-4.62-2.34-6.73-5.05
		c-2.08-2.67-6.64-9.52-4.83-11.46C307.12,174.55,321.14,179.96,321.34,186.88z"/>
	<circle class="st12" cx="297.88" cy="173.53" r="2.18"/>
	<path class="st12" d="M321.03,227.53c-0.7,0.49-5.58-9.45-18.68-18.06c-4.6-3.03-9.15-5.19-8.88-5.82
		c0.27-0.64,5.39,0.55,9.49,2.45C316.02,212.15,321.86,226.94,321.03,227.53z"/>
	<path class="st12" d="M287.49,162.9c-0.16,0.02-0.26-0.89-1.02-2.31c0,0-0.36-0.66-0.77-1.22c-1.32-1.81-5.77-1.77-6.12-1.77
		c-6.94,0.06-11.41-0.38-11.41-0.34c0,0.04,3.26-0.03,5.64-0.08c6.73-0.14,10.74-0.5,12.46,1.3c0.71,0.75,1.07,1.72,1.07,1.72
		C287.83,161.53,287.67,162.88,287.49,162.9z"/>
	<path class="st7" d="M286.04,253.65c-0.17,1.66-1.55,2.94-3.22,3.1l-22.99,2.22c-1.66,0.16-3.27-0.83-3.75-2.43
		c-0.22-0.71-0.38-1.44-0.49-2.2c-0.03-0.21,0.02-0.42,0.15-0.59c0.13-0.17,0.32-0.27,0.53-0.29l29.01-2.8
		c0.21-0.02,0.41,0.05,0.57,0.18c0.16,0.14,0.25,0.33,0.26,0.54C286.14,252.16,286.12,252.91,286.04,253.65z"/>
	<linearGradient id="SVGID_12_" gradientUnits="userSpaceOnUse" x1="266.6646" y1="262.1102" x2="296.5875" y2="232.1873">
		<stop  offset="0.0714" style="stop-color:#0DA9AB"/>
		<stop  offset="1" style="stop-color:#DEFA8E"/>
	</linearGradient>
	<path class="st13" d="M286.04,253.66c-0.73,7.13-6.4,12.99-13.81,13.7c-7.3,0.71-13.9-3.82-16.06-10.53
		c0.58,1.43,2.09,2.31,3.66,2.15l23-2.21C284.49,256.59,285.87,255.32,286.04,253.66z"/>
	<linearGradient id="SVGID_13_" gradientUnits="userSpaceOnUse" x1="238.4036" y1="352.9143" x2="317.6843" y2="260.3349">
		<stop  offset="0.0397" style="stop-color:#06CFF1"/>
		<stop  offset="0.0408" style="stop-color:#06CFF1"/>
		<stop  offset="0.1607" style="stop-color:#37D9DB"/>
		<stop  offset="0.2745" style="stop-color:#5DE0CA"/>
		<stop  offset="0.3793" style="stop-color:#78E6BD"/>
		<stop  offset="0.4719" style="stop-color:#88E9B6"/>
		<stop  offset="0.5423" style="stop-color:#8EEAB3"/>
		<stop  offset="0.8004" style="stop-color:#B9F39F"/>
		<stop  offset="1" style="stop-color:#DEFA8E"/>
	</linearGradient>
	<path class="st14" d="M322.27,305.3c0,0.21,0,0.41-0.01,0.61c-0.07,1.93-0.52,3.38-0.74,4.03c-6.33,19.33-10.12,29.53-15.44,37.78
		c-0.92,1.42-1.88,2.79-2.92,4.13c-1.36,1.79-2.85,3.54-4.5,5.34c-3.67,4-9.23,5.81-11.02,6.43c-6.55,2.31-12.34,1.89-16.18,1.93
		h-0.67c-3.86-0.04-9.64,0.39-16.18-1.93c-1.79-0.62-7.36-2.43-11.02-6.43c-10.1-10.99-13.99-20.13-22.86-47.25
		c-0.21-0.62-0.63-1.97-0.73-3.78c-0.03-0.52-0.04-1.05-0.01-1.57c0.19-3.24,1.51-6.42,3.84-9.32c4-4.98,10.17-7.71,16.55-7.73
		l30.76-0.13l30.2-0.12c6.52-0.03,12.84,2.71,16.98,7.75c2,2.44,3.28,5.08,3.75,7.8c0.06,0.39,0.12,0.78,0.16,1.17
		C322.24,304.43,322.27,304.86,322.27,305.3z"/>
	<linearGradient id="SVGID_14_" gradientUnits="userSpaceOnUse" x1="234.2039" y1="306.7595" x2="281.8803" y2="251.0858">
		<stop  offset="0.0397" style="stop-color:#06CFF1"/>
		<stop  offset="1" style="stop-color:#DEFA8E"/>
	</linearGradient>
	<path class="st15" d="M271.11,287.4l-30.76,0.13c-6.38,0.03-12.56,2.76-16.55,7.73c-2.33,2.9-3.65,6.08-3.84,9.32
		c0.16-3.33,1.52-6.59,3.96-9.55c4.13-5.04,10.46-7.78,16.98-7.75L271.11,287.4z"/>
	
		<linearGradient id="SVGID_15_" gradientUnits="userSpaceOnUse" x1="379.9959" y1="355.0414" x2="445.2136" y2="321.0547" gradientTransform="matrix(-0.9886 -0.1505 -0.1505 0.9886 765.7411 45.2856)">
		<stop  offset="0.0397" style="stop-color:#06CFF1"/>
		<stop  offset="0.0734" style="stop-color:#0FD1ED"/>
		<stop  offset="0.4151" style="stop-color:#67E2C5"/>
		<stop  offset="0.6937" style="stop-color:#A7EFA7"/>
		<stop  offset="0.8955" style="stop-color:#CFF795"/>
		<stop  offset="1" style="stop-color:#DEFA8E"/>
	</linearGradient>
	<path class="st16" d="M301.69,332.72c-0.45-23.86-3.68-28.58,1.08-34.26c0.55-0.65,3.34-3.98,7.93-4.83
		c3.66-0.68,6.98,0.49,8.55,1.39c9.55,5.41,6.71,28.86,0.43,43.66c-1.37,3.23-5.05,11.89-9.53,11.68c-1.84-0.08-3.19-1.63-4.14-2.74
		C301.8,342.7,301.76,336.32,301.69,332.72z"/>
	<linearGradient id="SVGID_16_" gradientUnits="userSpaceOnUse" x1="284.3322" y1="334.8798" x2="326.4004" y2="312.9569">
		<stop  offset="0.0397" style="stop-color:#06BED8"/>
		<stop  offset="1" style="stop-color:#DEFA8E"/>
	</linearGradient>
	<path class="st17" d="M306.08,347.72c-0.92,1.42-1.88,2.79-2.92,4.13c-0.33-0.34-0.62-0.68-0.89-0.99
		c-4.21-4.92-4.25-11.3-4.32-14.9c-0.45-23.86-3.68-28.58,1.08-34.25c0.35-0.42,1.63-1.94,3.7-3.2c-4.7,5.66-1.5,10.42-1.05,34.21
		c0.06,3.6,0.12,9.98,4.32,14.91C306.03,347.65,306.06,347.68,306.08,347.72z"/>
	<path class="st12" d="M319.54,312.85c-0.14-2.56-0.62-4.45-1.58-8.22c-1.26-4.93-2.84-7.34-1.81-8.29c0.67-0.62,1.98-0.2,2.28-0.11
		c4.51,1.44,5.91,9.9,5.71,15.2c-0.12,3.24-0.91,6.87-2.1,7.03c-0.19,0.03-0.65,0-0.99-0.29
		C319.73,316.99,319.64,314.8,319.54,312.85z"/>
	<path class="st12" d="M322.64,321.9c0,0.52-0.42,0.94-0.94,0.94c-0.52,0-0.94-0.42-0.94-0.94c0-0.52,0.42-0.94,0.94-0.94
		C322.22,320.96,322.64,321.38,322.64,321.9z"/>
	
		<radialGradient id="SVGID_17_" cx="268.9718" cy="259.9652" r="48.488" gradientTransform="matrix(1.012 0 0 0.4143 -2.4574 280.8518)" gradientUnits="userSpaceOnUse">
		<stop  offset="0" style="stop-color:#BCD7D6"/>
		<stop  offset="1" style="stop-color:#FFFFFF"/>
	</radialGradient>
	<ellipse class="st18" cx="269.74" cy="388.56" rx="49.07" ry="20.09"/>
	<linearGradient id="SVGID_18_" gradientUnits="userSpaceOnUse" x1="19.0332" y1="166.7528" x2="181.0072" y2="166.7528">
		<stop  offset="0" style="stop-color:#D7F8EA"/>
		<stop  offset="0.5053" style="stop-color:#ECF8F2"/>
		<stop  offset="1" style="stop-color:#D7F8EA"/>
	</linearGradient>
	<path class="st19" d="M133.55,214.21H66.49c-26.1,0-47.46-21.36-47.46-47.46v0c0-26.1,21.36-47.46,47.46-47.46h67.06
		c26.1,0,47.46,21.36,47.46,47.46v0C181.01,192.85,159.65,214.21,133.55,214.21z"/>
	<g>
		
			<linearGradient id="SVGID_19_" gradientUnits="userSpaceOnUse" x1="44.976" y1="168.9547" x2="175.7228" y2="141.1934" gradientTransform="matrix(0.9989 -0.0459 0.0459 0.9989 -8.1114 5.7791)">
			<stop  offset="0.0397" style="stop-color:#06CFF1"/>
			<stop  offset="1" style="stop-color:#DEFA8E"/>
		</linearGradient>
		<path class="st20" d="M69.94,184.91c0.03,0.55-1.58,0.89-4.83,1.04c-3.24,0.15-4.88-0.05-4.9-0.6l-0.51-11.08l-6.74,0.31
			l0.51,11.08c0.03,0.55-1.58,0.89-4.83,1.04c-3.24,0.15-4.88-0.05-4.9-0.6l-1.47-31.94c-0.03-0.67,1.57-1.09,4.82-1.24
			c3.24-0.15,4.88,0.11,4.91,0.79l0.52,11.32l6.74-0.31l-0.52-11.22c-0.02-0.45,0.77-0.81,2.36-1.07c0.83-0.1,1.65-0.17,2.45-0.21
			l2.46-0.02c1.61,0.12,2.43,0.4,2.45,0.85L69.94,184.91z"/>
		
			<linearGradient id="SVGID_20_" gradientUnits="userSpaceOnUse" x1="47.1849" y1="179.3574" x2="177.9328" y2="151.5959" gradientTransform="matrix(0.9989 -0.0459 0.0459 0.9989 -8.1114 5.7791)">
			<stop  offset="0.0397" style="stop-color:#06CFF1"/>
			<stop  offset="1" style="stop-color:#DEFA8E"/>
		</linearGradient>
		<path class="st21" d="M92.7,183.38c-1.97,1.28-4.54,2-7.72,2.14c-3.18,0.15-5.91-0.81-8.19-2.88c-2.28-2.07-3.51-5.02-3.69-8.86
			c-0.18-3.84,0.73-6.98,2.73-9.42c2-2.44,4.6-3.74,7.81-3.88c3.21-0.15,5.73,0.56,7.56,2.11c1.83,1.56,2.79,3.51,2.9,5.85
			c0.24,5.2-2.63,7.94-8.6,8.22l-3.32,0.15c0.04,0.96,0.34,1.62,0.89,1.96c0.55,0.35,1.33,0.49,2.36,0.45
			c2.25-0.1,4.36-0.71,6.34-1.84c0.03-0.03,0.18,0.18,0.46,0.65c0.83,1.35,1.27,2.49,1.32,3.44
			C93.58,182.43,93.3,183.07,92.7,183.38z M86.04,169.74c-0.06-1.35-0.75-1.99-2.07-1.93c-0.61,0.03-1.12,0.24-1.54,0.63
			c-0.42,0.39-0.61,0.94-0.58,1.64l0.07,1.49l2.6-0.12C85.59,171.4,86.09,170.83,86.04,169.74z"/>
		
			<linearGradient id="SVGID_21_" gradientUnits="userSpaceOnUse" x1="46.9423" y1="178.2074" x2="177.6867" y2="150.4466" gradientTransform="matrix(0.9989 -0.0459 0.0459 0.9989 -8.1114 5.7791)">
			<stop  offset="0.0397" style="stop-color:#06CFF1"/>
			<stop  offset="1" style="stop-color:#DEFA8E"/>
		</linearGradient>
		<path class="st22" d="M106.71,183.66c0.01,0.29-1.62,0.51-4.89,0.66c-2.57,0.09-3.86,0.02-3.87-0.21l-1.51-32.81
			c-0.02-0.48,1.52-0.79,4.64-0.94c2.73-0.03,4.11,0.07,4.12,0.29L106.71,183.66z"/>
		
			<linearGradient id="SVGID_22_" gradientUnits="userSpaceOnUse" x1="47.5089" y1="180.8719" x2="178.2527" y2="153.1113" gradientTransform="matrix(0.9989 -0.0459 0.0459 0.9989 -8.1114 5.7791)">
			<stop  offset="0.0397" style="stop-color:#06CFF1"/>
			<stop  offset="1" style="stop-color:#DEFA8E"/>
		</linearGradient>
		<path class="st23" d="M119.82,183.05c0.01,0.29-1.62,0.51-4.89,0.66c-2.57,0.09-3.86,0.02-3.87-0.21l-1.51-32.81
			c-0.02-0.48,1.52-0.79,4.64-0.94c2.73-0.03,4.11,0.07,4.12,0.29L119.82,183.05z"/>
		
			<linearGradient id="SVGID_23_" gradientUnits="userSpaceOnUse" x1="49.3025" y1="189.3295" x2="180.0508" y2="161.5679" gradientTransform="matrix(0.9989 -0.0459 0.0459 0.9989 -8.1114 5.7791)">
			<stop  offset="0.0397" style="stop-color:#06CFF1"/>
			<stop  offset="1" style="stop-color:#DEFA8E"/>
		</linearGradient>
		<path class="st24" d="M126.13,180.3c-2.11-2.12-3.25-5.14-3.43-9.06c-0.18-3.92,0.68-7.03,2.59-9.34c1.91-2.31,4.56-3.54,7.96-3.7
			c3.4-0.16,6.15,0.83,8.25,2.95c2.09,2.12,3.23,5.15,3.41,9.06c0.18,3.92-0.67,7.03-2.56,9.34c-1.89,2.31-4.54,3.54-7.94,3.7
			C131,183.41,128.24,182.43,126.13,180.3z M133.65,166.25c-1.81,0.08-2.65,1.6-2.52,4.56c0.14,2.95,1.11,4.39,2.93,4.31
			c1.81-0.08,2.65-1.6,2.52-4.56C136.44,167.6,135.46,166.16,133.65,166.25z"/>
		
			<linearGradient id="SVGID_24_" gradientUnits="userSpaceOnUse" x1="49.1078" y1="188.3958" x2="179.8516" y2="160.6352" gradientTransform="matrix(0.9989 -0.0459 0.0459 0.9989 -8.1114 5.7791)">
			<stop  offset="0.0397" style="stop-color:#06CFF1"/>
			<stop  offset="1" style="stop-color:#DEFA8E"/>
		</linearGradient>
		<path class="st25" d="M148.55,174.88c-0.01-0.22,1.47-0.41,4.44-0.54c2.97-0.14,4.46-0.11,4.47,0.08l0.32,6.94
			c0.01,0.32-1.46,0.55-4.43,0.69c-2.97,0.14-4.46,0.11-4.47-0.08L148.55,174.88z M156.36,171.62c0.01,0.19-1.14,0.34-3.43,0.45
			c-2.3,0.11-3.45,0.08-3.46-0.08l-2.05-23.71c-0.01-0.26,1.45-0.45,4.39-0.59c2.94-0.14,4.41-0.09,4.42,0.13L156.36,171.62z"/>
	</g>
	<path class="st12" d="M155.14,167.02c0,0-1.9-17.2-0.96-17.67C155.13,148.89,155.58,158.28,155.14,167.02z"/>
	<path class="st12" d="M157.02,175.71c0,0.57-0.46,1.03-1.03,1.03c-0.57,0-1.03-0.46-1.03-1.03c0-0.57,0.46-1.03,1.03-1.03
		C156.56,174.68,157.02,175.14,157.02,175.71z"/>
	<path class="st12" d="M143.49,168.18c0.01-0.96-0.11-3.69-2.09-5.91c-1.71-1.9-3.99-2.53-5.03-2.41c-0.2,0.02-0.87,0.14-0.91,0.42
		c-0.09,0.58,2.65,0.99,4.71,2.53C141.31,163.67,142.67,165.2,143.49,168.18z"/>
	<path class="st12" d="M116.77,150.37c1.06-0.01,1.46,19.28,1.15,22.77C117.61,176.62,116.34,150.37,116.77,150.37z"/>
	<path class="st12" d="M92.91,166.88c-0.46-2.61-3.44-5.54-5.3-5.08c-1.86,0.46,2.2,1.87,3.66,3.13
		C92.72,166.19,92.91,166.88,92.91,166.88z"/>
	<path class="st12" d="M76.59,181.73c2.16,2.39,5.24,2.86,5.29,2.75c0.05-0.11-3.38-0.57-5.18-3.31c-0.85-1.29-1.69-3.63-2.24-3.63
		c-0.01,0-0.04,0-0.06,0.02C74.12,177.77,75.21,180.2,76.59,181.73z"/>
	<path class="st12" d="M68.69,181.25c-0.69,0.95-0.78-23.39-1.22-25.77c0,0,0,0,0-0.16c-0.01-0.16-0.02-0.47-0.03-1.09
		c0-0.14-0.13-0.62-0.24-0.72c-0.9-0.82-4.87-0.41-3.18-0.63c1.49-0.19,3.22-0.05,3.65,0.11c0.19,0.07,0.2,0.44,0.25,0.58
		C68.79,158.4,69.61,180,68.69,181.25z"/>
</g>
<path class="st12" d="M175.05,154.99c-1.05,0.78-8.39-13.43-26.72-23.16c-10.31-5.48-18.72-6.68-18.5-7.68
	c0.26-1.17,12.28-1.6,23.18,3.85C169.37,136.19,176.19,154.14,175.05,154.99z"/>
<circle class="st12" cx="176.43" cy="160.46" r="1.25"/>
<ellipse class="st12" cx="78.21" cy="124.36" rx="8.8" ry="2"/>
<path class="st12" d="M97.78,124.36c0,0.6-1.07,1.08-2.38,1.08c-1.32,0-2.38-0.49-2.38-1.08c0-0.6,1.07-1.08,2.38-1.08
	C96.71,123.28,97.78,123.76,97.78,124.36z"/>
<path class="st12" d="M51.62,159.67c0.17,3.07,0.15,5.56-0.06,5.57c-0.21,0.01-0.51-2.47-0.69-5.53c-0.17-3.07-0.15-5.56,0.06-5.57
	C51.14,154.12,51.45,156.6,51.62,159.67z"/>
<path class="st12" d="M163.67,220.33c1.43,4.02,2.93,6.37,2.58,6.58c-0.39,0.25-2.97-2.31-4.5-5.67
	c-2.68-5.87-1.24-12.23-0.67-12.25C161.56,208.98,161.22,213.46,163.67,220.33z"/>
</svg>
