<svg xmlns="http://www.w3.org/2000/svg" viewBox="0 0 3000 3000"><defs><style>.cls-1{fill:#f9f154;isolation:isolate;}.cls-2{fill:#5ec3a7;}.cls-3{fill-rule:evenodd;}</style></defs><title>CKArtboard 7</title><g id="_7" data-name="7"><path class="cls-1" d="M726.6484,621.05486c38.495,10.69307,222.41584,64.88573,332.55446,151.4996,48.11881-5.34654,218.13861-105.86139,460.87128-95.16832s266.25743,14.9703,266.25743,14.9703,220.27723,68.43564,259.84158,80.198c35.28713-17.10892,242.73268-142.21783,330.41585-145.42575,29.94059-6.41584,52.396-9.62376,66.297,0s57.74257,79.12872,55.604,167.88119-16.03961,283.36634-58.81189,418.099c0,0-17.10891,21.38614-1.0693,58.81188s41.703,227.76238,45.9802,302.61386,37.42574,208.51485,70.57425,258.77228c-20.31683,0-41.703,1.06931-47.0495,18.17822s17.10891,117.62376,17.10891,117.62376-86.61386-13.901-105.86139,17.10891-191.40594,198.89109-295.12871,240.59406-444.83168,102.65347-519.68317,100.51485-556.0396-55.604-637.30693-115.48515S717.02464,2004.396,692.43058,1983.0099s-62.0198-26.73267-78.05941-21.38614-5.34653-37.42574,0-48.11881,10.69307-56.67327,2.13862-63.08911-28.87129-19.24752-41.703-14.9703,13.099-37.42574,25.26237-65.22772c0,0,54.93565-134.73267,51.72773-198.89109s13.901-270.53465,27.802-294.0594,20.31683-24.59406,20.31683-38.495S664.6286,1129.703,648.589,1074.099s-27.802-352.87129,3.20792-403.12871S726.6484,621.05486,726.6484,621.05486Z"/><path class="cls-2" d="M738.05434,745.10891c24.9505-9.26733,81.9802,12.11881,101.22772,19.24753S997.53949,847.0495,997.53949,847.0495,914.13355,932.59406,886.33157,966.099s-89.10891,119.76238-89.10891,119.76238-56.31683-99.08911-67.72277-156.11882-20.67327-136.87128-12.11882-156.83168S738.05434,745.10891,738.05434,745.10891Z"/><path class="cls-2" d="M2135.28206,837.78218s166.81189-79.12871,201.74258-90.53466,53.46535-5.703,61.30693,0,22.099,32.07921,17.82178,70.57426-24.23762,175.36634-53.46534,226.69307-33.505,44.198-39.20793,36.35644c0,0-76.27722-114.77228-107.28712-142.57426s-91.9604-89.82178-89.82179-94.099S2135.28206,837.78218,2135.28206,837.78218Z"/><path class="cls-2" d="M797.54455,1297.58416c101.22773,2.85148,690.05941,0,690.05941,0s775.604-1.74258,839.76238,1.26733,119.76237,3.0099,132.59406,71.44554,27.0891,299.40594,42.77227,337.901,27.411,114.487,39.9208,119.79794-35.64357,2.81592-38.495,15.6476c0,0-11.40594,53.46535,7.12871,111.20793-24.488,11.17536-22.81188,17.82178-81.26733,32.0792s-86.9703,65.58416-212.43564,54.17822-233.10891,13.54456-335.04951-55.604S1720.71287,1732.43564,1695.0495,1686.099s-51.66626-96.23762-123.14006-93.38614-117.81043-2.85148-147.03815,40.63366S1350.0198,1808,1310.099,1866.45545s-124.0396,124.0396-191.76238,134.73267-168.95049,14.25742-227.40594,7.84158-191.96323-30.62651-217.16973-39.55088-59.44435-8.21149-73.69177-4.64714,7.13873-34.21782,10.70309-57.74257,5.2916-53.6236-5.19578-63.88111-41.85373,3.287-39.71511-5.26741,51.32673-84.83168,53.46534-124.75247,23.52476-226.53887,30.65347-248.00211,4.47551-104.86918,40.37637-135.52264S797.54455,1297.58416,797.54455,1297.58416Z"/><path id="Rounded_Rectangle_1" data-name="Rounded Rectangle 1" class="cls-3" d="M640.06919,1429.58977H922.619a40.0001,40.0001,0,0,1,40,40v106.10009a40.0001,40.0001,0,0,1-40,40H640.06919a40.00011,40.00011,0,0,1-40-40V1469.58977A40.00011,40.00011,0,0,1,640.06919,1429.58977Z"/><path id="Rounded_Rectangle_3_copy_2" data-name="Rounded Rectangle 3 copy 2" class="cls-2" d="M781.56919,1483.06975h0a39.5,39.5,0,0,1,39.5,39.5h0a39.5,39.5,0,0,1-39.5,39.5h0a39.5,39.5,0,0,1-39.5-39.5h0A39.5,39.5,0,0,1,781.56919,1483.06975Z"/><g id="Artboard_5" data-name="Artboard 5"><g id="Group_8_copy" data-name="Group 8 copy"><g id="Group_7_copy" data-name="Group 7 copy"><path d="M605.5765,1797.35864c.45283-6.50946,1.15487-13.0133,1.30041-19.52963.22128-9.90732.05708-19.8233.05575-29.7356-.00081-5.97589-.24421-11.96347.04454-17.92529.62716-12.94888,1.581-25.88159,2.29762-38.8266.70676-12.76639,1.18307-25.54608,1.95847-38.30792.48261-7.94305,1.34861-15.86249,2.01275-23.795.47024-5.61667.80345-11.246,1.34889-16.85495,1.96049-20.16086,3.73091-40.34485,6.05538-60.46439,2.4393-21.11346,5.103-42.21262,8.27083-63.22725,3.66909-24.33969,7.799-48.61513,12.1031-72.852q4.36113-24.55822,9.817-48.91775c3.1842-14.13214,11.0098-26.0176,20.12071-37.01428,12.245-14.77945,24.79493-29.2503,42.021-38.67813,24.49335-13.40524,50.5943-18.77793,78.47126-17.34154,16.25905.83777,32.59866.08716,48.902.09763,16.13838.01035,32.27665.087,48.415.11958,11.97415.02419,23.94861-.01583,35.92251.04672,12.13538.06338,24.27.27429,36.4054.3154,11.1236.03767,22.24786-.12134,33.37155-.09049,11.94339.03311,23.88635.19582,35.82965.28357,6.13419.04507,12.26917.10846,18.4029.05769,6.96255-.05763,13.92382-.31079,20.88623-.34132q18.87976-.08279,37.76013.01336c11.77215.07535,23.54309.39511,35.315.42079,11.27258.02459,22.54547-.24587,33.8186-.28509,11.28345-.03926,22.56751.0209,33.851.08584,11.459.06594,22.91754.23819,34.37665.27709,11.96521.04061,23.93084-.05369,35.89624-.0308,11.31.02164,22.61993.14961,33.93.17557q24.70632.05672,49.41284.02955c16.47076-.01789,32.94147-.12046,49.41223-.1194,16.13849.001,32.277.0943,48.41553.13151,16.13977.03721,32.27966.09093,48.41937.0716,16.6355-.01993,33.27075-.15435,49.90625-.17493q31.19349-.0386,62.38721.03007c16.47156.026,32.943.13443,49.41455.14064,16.30408.00614,32.608-.103,48.91211-.10075,16.80517.00234,33.61059.14427,50.41565.1029,16.46692-.04053,32.93347-.2998,49.40039-.34035,12.13391-.02988,24.26831.2167,36.40234.19465,11.62915-.02113,23.25794-.30909,34.88709-.33424,12.28039-.02657,24.56115.11836,36.84167.18937,5.97254.03454,11.94507.0949,17.9176.10243,13.76465.01737,27.52955.07675,41.29371-.00846,11.77136-.07288,23.54138-.4405,35.3125-.46289,12.2705-.02335,24.5415.21634,36.81237.32926,5.80579.05343,11.61194.11936,17.41785.11051,19.24951-.02934,38.49951-.02646,57.74841-.158,16.78223-.1147,33.563-.49159,50.34522-.57453,17.13086-.08466,34.26269.08349,51.39416.075,17.30213-.00857,34.61292-.47164,51.9043-.06681,27.75806.64988,55.69446-2.78329,83.24939,2.02377,28.35132,4.946,53.83948,16.32459,73.83154,37.86922q10.35828,11.16272,20.04175,22.94642c9.7832,11.938,15.15369,25.81556,19.26025,40.72184,6.74427,24.48074,7.48731,49.701,11.41211,74.5072,2.38953,15.10249,5.18616,30.14293,7.4076,45.26886,1.76025,11.986,2.93249,24.05856,4.35,36.09454,1.41846,12.04431,2.96656,24.07584,4.18347,36.14066,1.25013,12.39514,2.22107,24.81958,3.21424,37.23919.7008,8.76246,1.33935,17.53257,1.81274,26.3097.43787,8.1138.63147,16.241.90906,24.36309.20935,6.12769.30237,12.26032.5852,18.38434.8501,18.40882,1.948,36.80814,2.59559,55.22361.432,12.28018.47253,24.58572.23742,36.87127-.077,4.02625-1.57165,8.02539-2.418,12.03693q-.8919.8346-1.78357,1.66922a19.51824,19.51824,0,0,0-1.74072-4.11133c-10.45141-14.40756-22.15478-28.02042-28.2539-45.15381-2.06043-5.78833-4.38953-11.49011-6.22754-17.34707-8.90357-28.37272-11.2771-57.64728-13.13916-87.17218-1.78113-28.23945-6.33387-56.29273-8.73841-84.507-3.21093-37.6755-5.41589-75.43578-8.30871-113.14-.62085-8.09279-2.33789-16.10125-3.54309-24.14957a82.939,82.939,0,0,1-1.25818-8.87952c-1.78845-44.9534-38.30506-79.25828-83.3468-75.81371-33.32508,2.54855-66.60132,1.96259-99.89087,2.28471q-222.72767,2.15522-445.46241,3.58256-118.4903.92124-236.98046,1.85148c-19.15046.15067-38.30439.65252-57.45044.43638-97.63965-1.10224-195.27594-2.51182-292.9159-3.57885q-222.72359-2.434-445.45-4.61007a89.80717,89.80717,0,0,1-13.91424-1.24918c-47.85919-8.06308-84.61542,30.31269-86.95816,69.70813-.58306,9.80469-2.03608,19.56159-2.50377,29.36837-.904,18.95449-1.23834,37.936-2.11656,56.892-.43152,9.31427-1.29622,18.62877-2.46211,27.88049-.6177,4.90164-2.44916,9.6377-3.47314,14.50311-3.11722,14.81142-7.30736,29.52059-8.91726,44.50191-4.342,40.40589-7.41364,80.94681-11.35545,121.3985a105.22954,105.22954,0,0,1-5.03953,24.28455c-6.91119,19.81231-14.50767,39.39245-22.15476,58.93847-4.39,11.22077-12.09392,20.40641-19.0604,30.00528Q606.35687,1797.57648,605.5765,1797.35864Z"/><path d="M657.84563,1950.84717c9.38235-.802,18.76131-2.21765,28.14781-2.26959,16.15843-.08954,31.40714,4.2948,46.71259,9.53656,19.966,6.83789,40.27375,14.17981,61.01479,16.933,40.52846,5.37994,80.83458,13.29633,121.95274,13.87817,27.31.38648,54.62128,2.28736,81.91312,1.95588,34.99652-.42505,70.01929-2.30042,104.07153-11.546,43.7573-11.8805,85.48673-28.12409,120.39041-58.33246a233.81415,233.81415,0,0,0,53.37067-66.132c4.64765-8.60748,10.41626-16.60577,15.57495-24.94287,3.40882-5.50916,6.83588-11.02185,9.91883-16.71491,7.983-14.74176,16.01049-29.46759,23.581-44.42215,6.44263-12.72656,12.09326-25.85229,18.43634-38.63162,4.42291-8.91073,9.54614-17.471,14.13916-26.30087,7.66925-14.74387,15.16382-29.57868,22.73352-44.37436,4.85449-9.48865,9.03558-19.40125,14.68823-28.38806,21.69263-34.48807,49.11365-60.58371,92.70429-64.04172,40.99658-3.2522,81.83307-3.12125,122.644,1.89877,24.66766,3.03424,44.3819,15.18122,61.04181,33.10273a162.518,162.518,0,0,1,30.95142,46.81625c7.34741,17.075,16.91,33.18546,25.17028,49.88248,6.76441,13.67346,12.98951,27.61273,19.56092,41.38305,3.57507,7.49134,7.46472,14.83243,11.04528,22.32117,3.79383,7.93445,7.34852,15.98288,11.08472,23.94537,2.95947,6.307,5.69666,12.75141,9.12488,18.799,9.17078,16.17816,18.69812,32.15368,28.00915,48.25286,6.001,10.37574,11.29786,21.20618,17.89649,31.18048,29.592,44.73041,70.71033,74.77094,120.14172,94.67115,39.64112,15.95886,80.5072,24.90759,123.06592,28.72607,47.14417,4.23,94.22473,2.57166,141.34534,2.28693,14.47668-.08747,28.99438-1.05182,43.40747-2.48072,36.608-3.62951,73.1156-8.072,109.068-16.214,18.02149-4.08124,33.97913-12.36481,49.04041-22.85871,12.24194-8.52929,26.40844-12.47485,40.85119-15.37231a187.80958,187.80958,0,0,1,19.715-3.25086c5.12305-.46893,10.34827.17914,15.52808.33069l.91149,1.98065c-4.34387,5.54322-8.55017,11.20166-13.07287,16.5951-4.0354,4.81231-8.23718,9.51623-12.69507,13.93567-6.22766,6.17364-12.45752,12.41241-19.24878,17.93127a162.73541,162.73541,0,0,1-21.9707,15.46954c-11.23413,6.377-22.67493,12.69208-34.6875,17.3208-15.89246,6.1236-32.37085,10.76343-48.69934,15.70386a264.6294,264.6294,0,0,1-26.51209,6.70795c-10.41418,2.00531-20.97363,3.29107-31.49756,4.68115-7.22363.95416-14.49658,1.53027-21.74292,2.318-8.90783.96839-17.7948,2.17279-26.72058,2.91974-8.60388.72-17.24158,1.09265-25.87182,1.42786-11.7771.4574-23.55945.92035-35.34278,1.03186-9.79321.09265-19.59143-.29742-29.38659-.51306-9.6211-.21179-19.25318-.24994-28.8584-.77191-10.9281-.59375-21.8407-1.53815-32.743-2.51978-8.58411-.773-17.15442-1.73651-25.70874-2.79388-8.7295-1.0791-17.44166-2.31171-26.14368-3.59619-8.2041-1.21088-16.41821-2.40082-24.568-3.92151-9.13562-1.70471-18.27759-3.47925-27.28211-5.756-10.12573-2.5603-20.14392-5.5772-30.127-8.66076-6.65491-2.05567-13.28626-4.28717-19.71411-6.95551-9.33753-3.87628-18.53772-8.09918-27.69153-12.39764-7.35779-3.455-14.87647-6.729-21.76648-10.9856-15.39929-9.51349-31.07178-18.76312-45.51428-29.60992-29.7616-22.35169-49.64991-52.65143-67.65967-84.83087-28.78382-51.43055-53.14624-104.90454-77.26721-158.55567-9.49646-21.12256-19.57679-41.98361-29.48218-62.92068-2.063-4.36038-4.67151-8.4606-6.78345-12.80005-10.51086-21.59723-28.85327-31.94946-51.57178-35.91437-25.0755-4.37634-50.37286-4.73245-75.699-3.41763-10.4397.542-20.88342,1.57544-31.24237,2.99194-27.05737,3.69989-43.89514,20.35294-55.30444,43.99716-18.39319,38.11725-37.52112,75.887-55.4585,114.21543-21.93988,46.88122-47.33106,91.84387-74.59711,135.7207-11.98034,19.27887-27.93817,35.723-46.3316,49.23761-12.84363,9.43683-26.29938,18.11719-39.96686,26.32788-8.34943,5.01593-17.5675,8.61353-26.48822,12.64295-8.00079,3.61389-16.04181,7.17089-24.22528,10.33892-7.57843,2.934-15.279,5.63428-23.0882,7.87018-10.83972,3.10376-21.7594,6.0127-32.78015,8.373-8.90588,1.90741-18.00689,2.91394-27.0307,4.25732-7.38263,1.09906-14.76968,2.17847-22.17233,3.1297-5.759.74-11.5361,1.3758-17.32135,1.86725-8.76251.74451-17.53375,1.411-26.31122,1.94776-8.76593.536-17.54,1.03668-26.318,1.252-10.28119.25207-20.57114.28723-30.85584.21484-8.96246-.06311-17.927-.30346-26.88311-.65533q-13.19289-.51828-26.36918-1.43708c-10.43081-.726-20.868-1.4599-31.26425-2.55322-9.568-1.00628-19.09033-2.45856-28.62364-3.78015-8.52956-1.18243-17.08417-2.243-25.55916-3.74445-9.14543-1.62023-18.27951-3.4132-27.29344-5.63763-9.81334-2.42175-19.59566-5.087-29.18259-8.27435-9.11367-3.03-18.03859-6.67963-26.89326-10.41956-6.54672-2.76513-12.92618-5.96106-19.23755-9.23956-7.647-3.97247-15.485-7.725-22.61615-12.50409a266.625,266.625,0,0,1-23.59458-18.23755c-5.89146-4.98834-11.183-10.68518-16.74125-16.067Z"/></g></g></g><path d="M545.54007,1855.59585c1.18381-4.15247,1.87759-8.53015,3.65875-12.40833a188.4883,188.4883,0,0,1,10.69237-20.31982c6.1951-10.04285,7.86014-21.46424,11.00777-32.47278,4.89032-17.10339,10.40827-34.02991,15.14842-51.173,5.80425-20.99121,11.67933-41.995,16.41714-63.24012s8.62642-42.71521,11.9358-64.23315c3.311-21.52838,5.87717-43.1958,7.9815-64.87878,2.45851-25.33234,4.169-50.73981,6.00292-76.12928,1.27055-17.59,1.75141-35.2467,3.39817-52.79736q3.02851-32.277,7.48276-64.416c3.06866-22.3081,8.84986-44.02844,16.27468-65.287,6.20954-17.77893,13.25834-35.18256,23.18331-51.306a5.30373,5.30373,0,0,0-.48336-4.875c-13.44235-15.85651-24.42126-33.01007-31.54231-52.7699a473.795,473.795,0,0,1-19.96741-73.00165c-4.27723-22.69366-8.404-45.43521-11.738-68.281-2.78238-19.066-4.69367-38.28223-6.31338-57.48905-1.92791-22.86154-3.60151-45.76535-4.51866-68.68551-.9179-22.93891-1.04526-45.92127-.988-68.88326.03937-15.79785.49309-31.62955,1.65062-47.3808,1.41342-19.2332,3.17888-38.47993,5.88132-57.56659a451.43239,451.43239,0,0,1,9.20842-45.87761c4.29261-17.20315,11.17482-33.58162,22.14829-47.6311a228.95326,228.95326,0,0,1,25.2486-27.403c8.168-7.52005,18.17012-11.99456,29.92763-11.61551,11.10251.35793,22.54619-1.70014,33.2771.30934a597.1807,597.1807,0,0,1,65.39983,15.84223c22.22311,6.82744,44.04486,15.19174,65.5368,24.10268,20.7261,8.59341,41.01038,18.33348,61.11566,28.32081,20.9986,10.43108,41.86115,21.21646,62.22092,32.83244,24.70062,14.09259,48.854,29.14914,73.127,43.9804,3.062,1.871,5.62818,4.71621,8.03162,7.45455,2.20227,2.50915,4.14252,2.47359,6.9425,1.073,49.94416-24.98282,102.30823-43.37338,156.24189-57.59454,51.757-13.64721,104.26794-23.32574,157.27172-30.3961,55.3537-7.38382,110.99683-11.55731,166.83106-11.06985,36.43017.318,72.94153,1.57272,109.23291,4.60592,34.93481,2.91981,69.77991,7.77092,104.39246,13.43541,31.32373,5.12627,62.52661,11.50551,93.32592,19.16907,27.88684,6.93892,55.3385,15.80815,82.64893,24.83387a472.32042,472.32042,0,0,1,83.31164,37.158c5.24341,2.949,10.55884,2.476,16.00061-.88345,26.30652-16.24018,52.49866-32.69957,79.2887-48.11228,22.47913-12.93261,45.33545-25.34945,68.73242-36.51154,29.25366-13.95615,58.872-27.30578,89.01319-39.192,22.99926-9.06971,46.90234-15.99178,70.69665-22.85154,16.77429-4.8359,33.9961-8.40824,51.69483-7.55657a200.72675,200.72675,0,0,1,22.79162,1.99743c11.714,1.91981,20.21338,9.6238,28.51917,17.38388,20.55639,19.20582,32.73449,43.15373,40.23242,69.96128,8.57068,30.64367,11.88013,62.02407,13.76709,93.58969,1.35925,22.73962,2.41382,45.52665,2.58154,68.30005.16406,22.2872-.74048,44.59271-1.604,66.87359-.65674,16.94724-1.592,33.9039-3.1167,50.792-1.74805,19.36087-4.01953,38.68531-6.55152,57.96149-2.51074,19.11365-5.02966,38.262-8.64672,57.18454-3.67823,19.2439-8.16553,38.3764-13.31067,57.28229a329.93838,329.93838,0,0,1-14.30017,41.90448c-6.92237,16.35455-15.19947,32.14734-23.217,48.01819-1.9668,3.89312-1.84583,6.68115.25207,10.54242a262.47962,262.47962,0,0,1,23.286,58.83386c5.21875,19.921,9.51892,40.14654,12.941,60.45428,2.84216,16.86658,4.20459,34.01709,5.53723,51.09528,1.96753,25.21112,3.18653,50.47973,4.988,75.705,1.57605,22.06988,3.13293,44.15338,5.41248,66.15686,1.91906,18.522,4.488,36.99835,7.4552,55.38421,3.39038,21.00665,7.0238,42.00226,11.51428,62.79462,3.92785,18.1875,8.94494,36.15515,13.92529,54.09643q9.6048,34.60163,20.00623,68.9795c2.303,7.61193,5.84277,14.84423,8.687,22.29956,2.64441,6.93115,4.99829,13.97473,7.72156,20.87341,1.07849,2.73206,4.93408,5.67883.95752,8.01135-3.10157,1.81909-7.45044,2.33313-11.168,2.11487-8.53528-.50134-17.00244-2.12768-25.53723-2.686-7.90223-.517-9.86146,1.384-11.94019,9.02-3.50049,12.85864-1.43738,25.61352,1.52905,38.06933,3.34839,14.05908,8.10864,27.776,11.915,41.73425,1.91663,7.0282,2.92285,14.30054,4.66419,21.38282a44.88044,44.88044,0,0,0,3.457,8.19519c2.19018,4.62536,4.71814,9.10913,6.582,13.85742.45776,1.16626-.80164,4.234-1.79309,4.50244a16.85159,16.85159,0,0,1-8.23352.313c-23.93494-6.11963-47.37842-3.1084-70.37879,4.19031-10.91125,3.46264-21.44824,8.25122-31.85168,13.09082-3.75318,1.74585-6.948,5.09509-9.8335,8.23181-11.61291,12.6239-23.63147,24.94885-34.34106,38.31323-19.01,23.72205-42.614,42.5686-64.929,62.752-11.31579,10.23487-24.1958,18.725-36.1936,28.22486-12.7749,10.11523-25.09448,20.81884-38.06946,30.66382-13.63147,10.34289-27.48328,20.4674-41.83118,29.774-14.06835,9.12537-28.60937,17.61951-43.44543,25.43677-14.83838,7.81848-30.08386,14.9679-45.54639,21.46973-16.07483,6.759-32.52734,12.6665-48.99695,18.4248-11.91748,4.16638-24.08068,7.66309-36.22888,11.12634-13.267,3.78211-26.58654,7.4126-39.98779,10.68018-12.43555,3.032-25.004,5.52087-37.523,8.20728-12.68518,2.722-25.37024,5.44641-38.07519,8.074-16.93909,3.5033-33.8462,7.19482-50.86194,10.28357-16.191,2.939-32.47364,5.42444-48.77283,7.70264-13.67493,1.91137-27.41077,3.4552-41.15649,4.77893-33.81507,3.2561-67.59876,7.16186-101.49146,9.21386-51.77319,3.13477-103.56372,1.47474-155.31317-2.03039-34.90173-2.36389-69.89117-3.46521-104.779-5.993-42.18964-3.05689-84.30542-7.121-126.46833-10.56385-30.566-2.49585-61.114-4.95385-91.03381-12.26232-10.51166-2.56763-21.65692-3.41724-31.53656-7.44556-9.51849-3.88135-19.3623-5.5304-29.05707-8.14575-12.51922-3.3772-25.21368-6.11292-37.7033-9.5896-16.80256-4.67737-33.62317-9.371-50.17283-14.85242-15.60842-5.16956-31.09164-10.85815-46.2337-17.25647-15.90976-6.72253-31.6236-14.03516-46.91611-22.0564-14.99765-7.8667-29.68924-16.43725-43.90371-25.64294-14.0756-9.11548-27.67108-19.04126-40.97293-29.26746-24.12284-18.54541-47.87973-37.56726-71.761-56.426-2.0821-1.64429-4.37552-3.2605-5.85977-5.38611-22.39288-32.07056-52.46594-56.61865-80.94374-82.70728-15.74617-14.425-32.27406-27.85534-50.98939-38.42846-18.54432-10.47657-38.10495-15.28638-59.37215-12.09925-4.119.61719-8.2426,1.24158-12.38471,1.657-5.037.505-7.084-1.15076-7.3353-6.18628-.171-3.42591-.87993-7.43079.532-10.22742,6.9244-13.71411,10.04876-28.49426,13.21482-43.28784,3.05857-14.29126,6.53972-28.53443,8.61487-42.97424.91016-6.33313-.95218-13.1449-2.03794-19.65894-.8348-5.0083-4.41545-7.50989-9.41884-6.904-9.529,1.15393-19.02459,2.6051-28.51065,4.08313-4.53358.70642-9.01367,1.75634-13.518,2.65063Q546.52066,1856.31832,545.54007,1855.59585Zm156.67338-598.02979c-.496.92877-.92154,1.62213-1.25136,2.35834-12.06688,26.93744-20.38507,55.04523-23.389,84.36212-3.45849,33.75342-5.7068,67.63587-8.15434,101.48584-1.284,17.75836-1.60728,35.58539-2.83749,53.34863-1.5743,22.73163-3.18444,45.47718-5.59754,68.12952q-3.48567,32.721-8.73708,65.24609c-3.19895,19.68848-7.05424,39.30677-11.57955,58.73267-4.22009,18.1156-8.64863,36.316-14.92529,53.782-6.33321,17.62317-14.85056,34.48328-22.80489,51.49353-4.34755,9.29712-9.51053,18.213-14.50992,27.68763,1.62784.13464,2.73971.22351,3.851.31872,8.22606.70508,16.032,2.25147,22.514,8.13306,9.6053,8.71545,13.45308,20.10718,15.11265,32.299,2.71076,19.91394-1.71213,39.09558-7.32075,58.02514-2.44422,8.24939-5.29416,16.37867-8.16688,25.19825,2.29555-.10169,4.05848-.19007,5.82226-.25635,11.82063-.44373,23.64618-1.33093,35.461-1.20581,13.59174.1438,26.96669,2.09143,38.81231,9.60351,10.68788,6.77808,12.04557,11.31165,7.09731,22.67408-.11556.26525.02685.64294.077,1.3811a9.0261,9.0261,0,0,0,2.93849,1.00073c5.74552-.075,10.14084,2.65808,14.27637,6.271q29.36568,25.65435,58.82585,51.20068c26.38663,22.87732,48.79855,50.03516,77.69925,70.29346,22.57764,15.82593,43.69525,33.71826,65.9429,50.03625a378.71545,378.71545,0,0,0,67.72086,39.17566c20.86615,9.46753,42.3266,17.67774,63.75174,25.84754,28.20712,10.7561,57.64743,17.25927,87.09152,23.46606,22.6087,4.76587,45.39715,8.71765,68.17328,12.63916,24.93207,4.29273,49.88092,8.57349,74.9342,12.05457,27.37958,3.8042,54.88507,6.70507,82.34,9.963,14.39294,1.708,28.75763,3.87756,43.20148,4.88586,26.9198,1.879,53.87933,3.256,80.83917,4.46717,18.63141.83691,37.32007.54895,55.93219,1.63574,39.621,2.31335,79.25348,3.63721,118.87994,1.17822,24.1034-1.49585,48.16406-3.94263,72.17346-6.6001,16.51416-1.828,33.32679-1.42566,49.476-6.35461a97.54434,97.54434,0,0,1,15.12255-3.15784c19.27723-2.65783,38.67456-4.56323,57.85425-7.77954,22.6305-3.7948,45.113-8.50427,67.60254-13.097,24.42554-4.988,48.90112-9.81116,73.14588-15.584a619.86071,619.86071,0,0,0,100.36657-32.933c24.06922-10.29212,47.6001-21.66138,69.6438-35.69568,28.1947-17.95056,55.8783-36.6554,81.86328-57.86218,17.32007-14.1355,34.83924-27.93238,49.90662-44.52478,10.75195-11.84034,21.15149-24.00623,32.10461-35.65418a20.33064,20.33064,0,0,1,10.37146-5.83642c3.80262-.70435,6.4563-1.85071,8.59644-4.94959a39.84632,39.84632,0,0,1,5.44958-6.489c4.92493-4.604,11.51453-4.8208,16.91651-.8274,1.04248.77051,2.07458,1.55481,3.19592,2.39612,10.4054-10.94531,20.4187-21.87024,30.8717-32.35693,9.32117-9.35132,17.71985-19.45886,30.313-25.4989,12.16138-5.83325,24.00244-11.61792,37.67359-11.75586,7.38195-.07471,14.7738.85071,22.40979,1.34082-.44739-1.48462-.885-2.89734-1.29895-4.31677-4.652-15.95166-10.05616-31.73206-13.74268-47.90393-3.89026-17.06482-4.17493-34.38111,2.88525-51.053,5.44361-12.85486,14.10828-21.76136,28.78248-22.81372,5.733-.41126,11.52-.06714,17.30456-.06714-.54773-.61585-1.41833-1.52954-2.21643-2.50257-6.63965-8.09545-14.113-15.65942-19.72095-24.41723a215.17,215.17,0,0,1-26.63708-59.97583c-6.89527-25.50049-13.89575-51.03589-19.13135-76.90405-5.13879-25.38929-8.83179-51.13135-11.86072-76.87134-3.3999-28.89508-5.73706-57.93341-7.806-86.96149-1.88049-26.38635-2.79345-52.84192-4.11023-79.26813-1.53332-30.77368-3.7937-61.45459-9.65222-91.78961-4.692-24.29553-11.46228-47.8363-22.55591-70.07245-1.94494-3.89862-3.453-8.64178-3.1853-12.86969a70.58843,70.58843,0,0,1,4.10229-18.424c3.20374-9.21393,8.89625-17.52209,9.79322-27.60333a50.01727,50.01727,0,0,1,1.81555-9.288c4.07983-14.2232,9.00159-28.24572,12.30334-42.64251,6.35364-27.704,12.27759-55.52628,17.48792-83.46582,3.471-18.61185,5.86755-37.46106,7.89465-56.29557,2.43811-22.65356,4.45508-45.37634,5.77271-68.12024,1.47217-25.41409,2.62048-50.88382,2.68176-76.33233.061-25.271-1.02222-50.56523-2.30664-75.81351-1.32849-26.11372-4.1604-52.08957-10.1731-77.63034-6.55285-27.83494-19.09008-52.10657-41.73681-70.3114-2.11109-1.69693-5.42371-3.08446-7.99146-2.81746-9.74023,1.01278-19.59851,1.9911-29.06213,4.37392-43.39722,10.92679-85.244,26.55881-125.639,45.54022-36.40588,17.10693-72.22815,35.60853-107.42383,55.09209-30.698,16.99382-60.19519,36.16279-90.12695,54.52726-3.17639,1.94892-5.93323,2.47756-9.34058,1.1023-10.34253-4.17449-20.59424-8.63867-31.1372-12.24053q-56.21265-19.204-112.62012-37.83656c-7.95215-2.6355-16.18884-4.41249-25.18-6.82239.9226,2.98212,1.47839,4.87426,2.09179,6.7475,12.4093,37.8929,23.03565,76.24434,29.64392,115.62238,5.63159,33.55911,8.27954,67.20089,1.392,100.89959-4.54724,22.24869-11.6676,43.59357-26.68323,61.21726-11.7063,13.73947-26.22729,22.28616-45.135,19.49106-17.1029-2.52832-28.85656-12.90451-37.53405-27.23343-7.50562-12.39392-12.03589-25.96356-15.37708-39.96515-8.30225-34.78989-11.77393-70.309-15.82275-105.73541-5.90918-51.70446-13.23963-103.13936-27.50086-153.35574-1.39734-4.92011-3.57312-6.99766-8.7218-7.55423-19.34277-2.091-38.61511-4.82757-57.95117-6.98891-11.699-1.30767-23.46643-2.0017-35.81922-3.02235.41395,2.25389.6587,3.83468.9983,5.39477,3.08422,14.16453,6.3833,28.28555,9.24389,42.49492,8.76135,43.51957,15.47547,87.28616,15.74317,131.83735.26794,44.60617-6.1521,88.0398-22.37439,129.7688-7.24707,18.64188-16.98853,35.79749-31.10266,50.23944-25.50635,26.099-58.59174,28.32257-87.23615,5.73926-18.53766-14.61517-31.23132-33.6261-40.40375-55.05048-21.28259-49.71032-28.24505-101.89535-25.50592-155.51641,2.2356-43.76285,10.62409-86.61289,20.78253-129.13843,2.12165-8.88153,4.408-17.7237,6.77631-27.217-2.6947,0-4.8233-.10252-6.93933.01739-10.30786.58408-20.63312.99245-30.91364,1.9-20.235,1.78638-40.44238,3.88376-60.66674,5.79363-3.05689.28868-4.7453,1.64517-5.48926,4.72615-1.25055,5.179-2.89581,10.26126-4.30188,15.40421-13.6742,50.01614-20.28058,101.23814-26.10632,152.60129-3.71833,32.78341-7.20728,65.61187-14.93329,97.785-3.36109,13.99634-7.83118,27.60458-15.4303,39.94134-10.76477,17.47583-25.54254,28.708-47.02741,27.4664-15.44146-.89236-27.24908-9.33419-36.61633-21.05926-15.64551-19.58368-22.84015-42.73627-26.89184-66.99124-5.85828-35.06925-1.92273-69.79025,4.5075-104.35007,7.11713-38.25117,17.85388-75.542,30.17591-112.40279.9115-2.72673,1.63281-5.51705,2.58154-8.7519a28.02348,28.02348,0,0,0-3.22089.42831c-34.12481,9.63948-68.572,18.29331-102.25757,29.28143-25.51812,8.3239-51.77246,15.64484-74.19043,31.60553-3.75195,2.6713-7.70275,1.95774-11.82061.04445-10.33231-4.80067-19.77173-11.03877-29.50113-16.8898-29.64893-17.83011-59.41236-35.54689-89.87549-51.92331-27.52554-14.79726-55.71555-28.46766-84.18622-41.369a699.35615,699.35615,0,0,0-101.62343-37.31686c-14.19555-3.93719-28.95779-5.87751-43.51834-8.40256a9.88566,9.88566,0,0,0-6.95,1.70086c-18.18482,14.07135-30.1781,32.63394-37.89132,54.03776-6.58374,18.26959-9.40162,37.36153-11.78407,56.55821-5.19893,41.89076-6.64082,83.95436-5.6781,126.09085.58894,25.77625,1.82041,51.55463,3.49858,77.28412,1.46108,22.40109,3.42837,44.79883,6.1385,67.08048,2.689,22.10806,5.64592,44.26492,10.18334,66.04669,5.99709,28.78885,13.58012,57.24991,20.62973,85.81528,1.95059,7.90393,4.64812,15.62353,6.60144,23.527,1.9937,8.06671,3.37444,16.28424,5.32723,24.36231a5.4925,5.4925,0,0,0,3.3856,3.345c13.33145,3.24255,17.1624,13.57464,8.92317,24.77252-2.84958,3.87286-5.4749,7.62744-2.68425,12.6698.34532.624.13645,1.55469.22574,3.02362C704.88279,1259.62942,703.631,1258.66177,702.21345,1257.56606Z"/><path d="M783.09767,1108.089c-7.94094-7.16125-13.74587-16.86148-19.067-26.84286-14.60434-27.39487-25.728-56.2764-36.0919-85.46906-12.31674-34.69327-22.95987-69.88483-30.11368-106.02374-7.51912-37.98441-11.2966-76.11394-1.9088-114.42766,3.2999-13.46773,8.85633-25.88043,18.05732-36.29935,9.71251-10.99817,20.96371-15.87936,36.75132-13.191a341.676,341.676,0,0,1,68.66159,18.7663c24.89792,9.84911,49.42243,20.68535,73.84641,31.67654,22.15137,9.96851,44.24252,20.15668,65.79883,31.33107,14.11358,7.31624,27.25021,16.52471,40.75876,24.99047,1.65078,1.03454,2.90887,2.70465,4.32263,4.1067,2.9111,2.887,2.70944,5.45555-.78421,7.72258a5.99385,5.99385,0,0,0-1.84812,1.65527c-15.31387,24.33114-36.96447,43.17711-56.05951,64.18245-37.09667,40.8079-74.67495,81.19269-107.12844,125.88965-13.5846,18.70951-25.72977,38.46451-38.51587,57.75315-2.95969,4.46481-5.81711,8.896-11.53533,10.46661C786.49368,1104.85622,785.0926,1106.59945,783.09767,1108.089ZM976.81022,851.59127c-1.83148-1.24545-2.346-1.6795-2.92932-1.97986C951.392,838.0312,929.1442,825.9472,906.346,815.011Q850.96158,788.44352,794.93028,763.235a202.9252,202.9252,0,0,0-36.74768-12.58845c-16.92719-3.971-25.27,1.10183-31.679,17.12555-7.8203,19.55247-9.62074,40.13958-8.7498,60.88644,1.35452,32.26651,7.95854,63.705,16.52637,94.76038a885.814,885.814,0,0,0,44.826,125.964c2.94407,6.59144,6.21357,13.03754,9.36365,19.61561C841.01368,987.31127,904.61067,916.12472,976.81022,851.59127Z"/><path d="M2328.39073,1107.8052c-2.068-1.42719-4.20545-2.765-6.1858-4.30487-2.32031-1.80429-5.08361-3.39759-6.65319-5.75049-10.53223-15.78952-20.397-32.03552-31.22669-47.61319-30.11719-43.32047-64.94787-82.7901-100.568-121.57886-20.27942-22.08319-40.78772-43.95657-60.995-66.10513-3.99853-4.38254-7.09936-9.58536-10.59863-14.421a25.94774,25.94774,0,0,0-1.63538-2.47865c-5.25524-5.71262-5.41626-7.36907,1.19922-12.13987,9.15625-6.60293,18.34046-13.36621,28.24768-18.694,44.01233-23.66831,89.778-43.63918,135.70057-63.24884a409.68864,409.68864,0,0,1,73.02832-23.57283c6.3125-1.38762,12.80224-1.98146,19.21923-2.87776,13.96705-1.95082,23.4563,5.67253,31.676,15.34956,13.993,16.47331,18.2323,36.63324,20.94263,57.30382,3.3706,25.70727,1.23413,51.20791-3.16993,76.56326-11.40527,65.66339-32.80468,128.20578-59.8551,188.90573-6.63318,14.88461-13.94958,29.52475-25.0271,41.837-1.20984,1.34454-2.172,2.9118-3.24914,4.37573Q2328.81564,1108.58,2328.39073,1107.8052Zm-4.50354-39.04059c.6195-1.08655,1.235-2.036,1.726-3.0459,18.97339-39.02389,33.88684-79.59946,46.49756-121.07516,10.43713-34.327,18.8236-69.08173,21.984-104.90026,2.17248-24.62162.881-49.00149-8.25745-72.32744-5.96033-15.21395-13.83838-19.49732-29.98779-17.23394a35.32418,35.32418,0,0,0-7.327,1.52841c-12.95093,4.78477-26.18628,8.985-38.69336,14.7532q-67.348,31.06048-134.24036,63.10564c-13.30822,6.35211-26.07434,13.8399-40.44079,21.53108C2207.82371,916.06393,2271.422,987.2383,2323.88719,1068.76461Z"/><path d="M1559.25327,1822.553c3.25751,26.78528,8.98926,52.90552,28.87317,73.47791,16.16712,16.72692,37.76331,17.47668,55.5055,2.43188,14.52429-12.31641,20.25561-28.417,21.06067-46.81763.0509-1.16528-.21216-2.4646.21618-3.46887,1.01392-2.37683,2.35633-4.61365,3.56592-6.9071,2.47363,1.60217,6.01355,2.63586,7.22644,4.91028,4.08679,7.6632,3.45837,16.07458,2.21289,24.41906-4.37854,29.33741-28.89612,54.9104-57.44763,59.01868-18.03455,2.595-33.33228-4.15015-46.59888-16.02954-10.33777-9.25684-17.67682-20.70789-24.1676-34.23364-1.34186,2.73669-2.31482,4.68432-3.25623,6.647-7.17315,14.95373-16.52716,28.30127-30.44921,37.62317-24.06238,16.11218-51.734,13.66272-72.80622-6.306-15.52905-14.71582-24.78912-32.53382-24.29321-54.41761a33.45718,33.45718,0,0,1,3.0506-12.94543c1.00024-2.16272,4.412-4.31677,6.84649-4.44922,3.63416-.19787,3.51453,3.56445,3.87384,6.39551.983,7.74634,1.39624,15.65234,3.29993,23.17505,3.17645,12.55212,10.83991,22.4303,21.24976,30.00073,19.23474,13.988,41.476,9.69824,57.35583-10.78381,11.62616-14.99573,17.88684-32.21106,21.05823-50.69019.95489-5.56409,1.48822-11.19971,2.26465-16.79565.37073-2.67212-.70679-3.82508-3.3855-4.3523-24.80011-4.88073-48.434-13.46728-71.72577-23.03772a76.54134,76.54134,0,0,1-14.54657-7.66845c-15.86822-11.016-17.43188-31.9535-3.55432-45.45594,8.54211-8.3114,18.64789-14.51416,30.29394-16.63781,27.68726-5.04895,55.57923-9.28772,83.85254-7.41016,15.9104,1.05652,31.82508,2.87146,47.55384,5.46179,7.0531,1.1615,14.01977,4.394,20.38257,7.86548,11.91833,6.50281,16.80664,20.23791,12.68481,33.06921-3.3894,10.55127-9.75317,18.45118-19.18481,24.6366C1601.30308,1805.71352,1579.95786,1812.88235,1559.25327,1822.553Z"/><path d="M2035.21238,1720.10647c.55554,7.78808-.86255,14.88415-6.1311,21.02087-2.25159,2.62256-4.46009,3.10352-6.61865.51111-2.73621-3.28613-5.89148-6.58618-7.42273-10.452-8.02686-20.26391-15.12427-40.9038-23.44446-61.04126-10.62049-25.70471-24.83142-49.30725-48.24463-65.40539-21.68421-14.9093-45.48047-22.953-72.21155-15.42768-15.39416,4.33368-28.32471,12.99573-40.0758,23.58436-21.91028,19.74273-35.77894,44.72283-46.86573,71.58258-5.32641,12.90393-11.03625,25.65405-16.78894,38.37585-3.176,7.02368-11.1864,7.95386-15.92639,1.77319a27.54245,27.54245,0,0,1-4.83667-9.66613c-5.00879-19.74634-1.80676-38.76465,5.166-57.57349a188.34928,188.34928,0,0,1,32.25048-55.25964c15.6781-18.84143,33.94886-34.80841,56.63013-44.71888,20.68982-9.04028,42.23462-12.34606,64.74622-7.42645a143.45217,143.45217,0,0,1,76.59082,43.79706c20.59851,22.285,34.74621,48.19031,43.63061,77.01453,3.12659,10.14367,5.47058,20.55871,7.60755,30.96569C2034.49888,1707.75625,2034.60154,1713.98354,2035.21238,1720.10647Z"/><path d="M1028.80366,1725.81972c.58313-18.06481,4.25439-35.56237,10.00433-52.705,8.34833-24.889,20.55924-47.70825,37.4318-67.73126,13.92852-16.5293,30.54394-29.95368,50.54065-38.92969,14.68194-6.59039,29.724-11.6261,45.8656-12.57654a104.64526,104.64526,0,0,1,41.159,6.01837c13.93152,4.89636,26.90546,11.775,38.018,21.38959,10.01324,8.66333,19.85534,17.82092,28.18292,28.05438a241.65823,241.65823,0,0,1,22.77557,34.382c8.99591,16.03052,15.49433,33.23022,16.03,51.89575a141.22838,141.22838,0,0,1-2.11615,25.64087c-.55054,3.52918-2.9173,7.04517-5.21576,9.97254a8.81528,8.81528,0,0,1-15.06256-1.76624q-7.0317-15.1496-13.4906-30.56348c-8.81152-21.05017-17.81378-42.03064-32.12891-60.06762-16.08966-20.27271-34.83013-37.15247-60.66082-44.13617-17.19605-4.64917-33.65149-1.57325-49.756,4.922-21.95507,8.855-38.09423,24.3252-51.05511,43.8158-11.17987,16.8125-18.8078,35.05847-25.16345,54.10669-4.68231,14.03333-10.822,27.58044-16.31275,41.344a1.29548,1.29548,0,0,1-.20086.45411q-5.17448,5.00079-10.36432,9.98571c-2.82681-4.34216-6.29144-8.41906-8.249-13.12292C1027.796,1733.22524,1028.80366,1729.31277,1028.80366,1725.81972Z"/><path d="M740.38748,1971.17312c15.77645,3.32886,31.588,6.50122,47.31971,10.02966,16.40555,3.67969,32.73169,7.71289,49.0976,11.56995,5.02341,1.184,8.31036,4.20154,9.4032,9.23926,1.05883,4.8811-.62934,9.30346-4.67292,11.7893a15.9674,15.9674,0,0,1-9.80755,2.10645c-9.04969-1.25721-18.00214-3.26587-26.955-5.158-22.2979-4.71289-44.54382-9.67725-66.87553-14.22168-8.76845-1.7843-12.98584-6.07788-12.22621-13.92188C726.33564,1975.74087,731.6793,1971.92641,740.38748,1971.17312Z"/></g></svg>